<svg xmlns="http://www.w3.org/2000/svg" width="60.68" height="49.058" viewBox="0 0 60.68 49.058">
    <defs>
        <style>
            .cls-1,.cls-2,.cls-3{fill:#fff}.cls-2{opacity:.7}.cls-3{opacity:.4}.cls-4{fill:#02f6b6}
        </style>
    </defs>
    <g id="arrow" transform="translate(0 -.001)">
        <path id="Path_2151" d="M28.23 18.64l11.33 6.54-11.33 6.55V18.64m-.79-1.37V33.1l13.7-7.92z" class="cls-1" data-name="Path 2151"/>
        <path id="Path_2152" d="M14.51 18.64l11.33 6.54-11.33 6.55V18.64m-.79-1.37V33.1l13.71-7.92-13.71-7.91z" class="cls-2" data-name="Path 2152"/>
        <path id="Path_2153" d="M.79 18.64l11.34 6.54L.79 31.73V18.64M0 17.27V33.1l13.71-7.92z" class="cls-3" data-name="Path 2153"/>
        <path id="Path_2154" d="M53.49 7.17a24.58 24.58 0 0 0-34.7 0l.56.56a23.74 23.74 0 1 1 0 33.58l-.56.56a24.538 24.538 0 1 0 34.7-34.7z" class="cls-4" data-name="Path 2154"/>
    </g>
</svg>
