<?xml version="1.0" encoding="UTF-8" standalone="no"?><!DOCTYPE svg PUBLIC "-//W3C//DTD SVG 1.1//EN" "http://www.w3.org/Graphics/SVG/1.1/DTD/svg11.dtd"><svg width="100%" height="100%" viewBox="0 0 273 274" version="1.1" xmlns="http://www.w3.org/2000/svg" xmlns:xlink="http://www.w3.org/1999/xlink" xml:space="preserve" xmlns:serif="http://www.serif.com/" style="fill-rule:evenodd;clip-rule:evenodd;stroke-linejoin:round;stroke-miterlimit:2;"><g><path d="M0.564,0.955l0,272.129l272.128,-272.129l-272.128,0Z" style="fill:#003a2c;fill-rule:nonzero;"/><path d="M65.302,4.544c-0.676,-1.199 -1.369,-2.394 -2.058,-3.589l-6.157,0c1.208,2.063 2.398,4.13 3.557,6.197c16.855,30.152 16.94,66.103 0.211,96.161c-4.493,8.071 -9.499,16.13 -14.34,23.919c-15.647,25.204 -30.443,49.034 -30.443,74.743c0,0.487 0.004,0.97 0.018,1.458c0.331,14.474 5.248,28.206 12.241,41.884l3.982,-3.978c-6.268,-12.559 -10.595,-25.087 -10.895,-38.027c-0.456,-24.666 14.117,-48.281 29.633,-73.265c4.868,-7.844 9.906,-15.956 14.466,-24.139c17.633,-31.691 17.548,-69.579 -0.215,-101.364Zm157.847,0c-0.671,-1.199 -1.374,-2.394 -2.058,-3.589l-6.161,0c1.208,2.063 2.403,4.13 3.561,6.197c6.381,11.41 10.345,23.651 11.915,36.09l4.671,-4.671c-1.955,-11.723 -5.892,-23.231 -11.928,-34.027Zm-118.384,0c-0.671,-1.199 -1.374,-2.394 -2.063,-3.589l-6.156,0c1.212,2.063 2.402,4.13 3.561,6.197c16.855,30.152 16.935,66.103 0.21,96.161c-4.496,8.071 -9.498,16.13 -14.34,23.919c-15.646,25.204 -30.447,49.034 -30.447,74.743c0,0.487 0.005,0.97 0.018,1.458c0.099,4.439 0.649,8.805 1.544,13.123l4.577,-4.581c-0.448,-2.868 -0.72,-5.754 -0.792,-8.663c-0.501,-24.666 14.121,-48.281 29.633,-73.265c4.872,-7.844 9.91,-15.956 14.47,-24.139c17.628,-31.691 17.548,-69.584 -0.215,-101.364Zm-19.732,0c-0.675,-1.199 -1.369,-2.394 -2.058,-3.589l-6.161,0c1.213,2.063 2.403,4.13 3.562,6.197c16.854,30.152 16.935,66.098 0.21,96.161c-4.497,8.071 -9.499,16.13 -14.336,23.919c-15.655,25.204 -30.447,49.034 -30.451,74.743c0,0.487 0.009,0.97 0.018,1.458c0.228,9.7 2.514,19.061 6.098,28.3l4.161,-4.157c-2.904,-8 -4.738,-16.049 -4.926,-24.264c-0.519,-24.666 14.116,-48.281 29.628,-73.265c4.873,-7.844 9.911,-15.956 14.47,-24.139c17.633,-31.691 17.548,-69.584 -0.215,-101.364Zm-77.811,261.882c-2.282,-3.682 -4.519,-7.333 -6.658,-10.971l0,10.345c0.922,1.499 1.848,2.998 2.783,4.501l3.875,-3.875Zm235.654,-261.882c-0.667,-1.199 -1.369,-2.394 -2.058,-3.589l-6.157,0c1.213,2.063 2.403,4.13 3.562,6.197c3.575,6.394 6.349,13.056 8.411,19.861l4.282,-4.281c-2.08,-6.22 -4.751,-12.309 -8.04,-18.188Zm17.673,-3.589l-6.156,0c1.212,2.063 2.398,4.13 3.557,6.197c1.042,1.853 2.009,3.727 2.921,5.624l3.951,-3.955c-0.716,-1.432 -1.427,-2.868 -2.215,-4.277c-0.671,-1.199 -1.364,-2.394 -2.058,-3.589Zm-214.983,3.589c-0.667,-1.199 -1.365,-2.394 -2.058,-3.589l-6.152,0c1.208,2.063 2.402,4.13 3.557,6.197c16.859,30.152 16.939,66.103 0.21,96.161c-4.497,8.071 -9.503,16.13 -14.34,23.924c-10.564,17.011 -20.72,33.405 -26.219,50.165l0,49.114c3.503,10.617 8.89,21.02 15.056,31.512l3.906,-3.906c-9.83,-16.904 -17.436,-33.49 -17.835,-50.81c-0.505,-24.68 14.112,-48.277 29.624,-73.261c4.873,-7.848 9.911,-15.96 14.47,-24.143c17.633,-31.691 17.553,-69.579 -0.219,-101.364Zm157.852,0c-0.676,-1.199 -1.37,-2.394 -2.059,-3.589l-6.156,0c1.208,2.063 2.398,4.13 3.557,6.197c9.655,17.266 13.781,36.439 12.42,55.315l5.571,-5.57c0.246,-17.951 -4.17,-35.96 -13.333,-52.353Zm-177.579,0c-0.671,-1.199 -1.369,-2.394 -2.063,-3.589l-6.156,0c1.212,2.063 2.403,4.13 3.561,6.197c16.859,30.152 16.94,66.103 0.211,96.161c-4.497,8.071 -9.499,16.13 -14.336,23.919c-2.197,3.535 -4.371,7.043 -6.492,10.533l0,10.429c3.481,-5.991 7.226,-12.027 11.025,-18.147c4.872,-7.844 9.91,-15.956 14.465,-24.139c17.633,-31.691 17.552,-69.579 -0.215,-101.364Zm-19.731,0c-0.672,-1.199 -1.37,-2.394 -2.059,-3.589l-3.485,0l0,4.649c0.291,0.515 0.6,1.029 0.886,1.548c16.859,30.152 16.939,66.103 0.215,96.161c-0.358,0.64 -0.739,1.28 -1.101,1.919l0,10.595c1.964,-3.288 3.91,-6.595 5.763,-9.919c17.628,-31.691 17.548,-69.579 -0.219,-101.364Zm157.847,0c-0.672,-1.199 -1.369,-2.394 -2.063,-3.589l-6.156,0c1.212,2.063 2.407,4.13 3.561,6.197c16.859,30.152 16.94,66.103 0.21,96.161c-4.496,8.071 -9.499,16.13 -14.335,23.919c-0.68,1.096 -1.36,2.188 -2.032,3.275l16.139,-16.138c1.669,-2.81 3.315,-5.624 4.89,-8.461c17.633,-31.691 17.553,-69.579 -0.214,-101.364Zm-39.463,0c-0.667,-1.199 -1.369,-2.394 -2.058,-3.589l-6.157,0c1.213,2.063 2.403,4.13 3.557,6.197c16.864,30.152 16.94,66.103 0.215,96.161c-4.497,8.071 -9.499,16.13 -14.34,23.919c-14.89,23.982 -28.984,46.725 -30.318,71.024l6.009,-6.008c3.173,-20.734 15.66,-40.976 28.846,-62.201c4.863,-7.844 9.901,-15.956 14.465,-24.139c17.629,-31.691 17.552,-69.579 -0.219,-101.364Zm19.731,0c-0.671,-1.199 -1.369,-2.394 -2.058,-3.589l-6.161,0c1.217,2.063 2.403,4.13 3.562,6.197c16.859,30.152 16.939,66.103 0.21,96.161c-4.497,8.071 -9.499,16.13 -14.336,23.919c-9.597,15.459 -18.863,30.398 -24.599,45.575l10.42,-10.421c5.262,-10.653 11.893,-21.364 18.712,-32.339c4.872,-7.844 9.91,-15.956 14.465,-24.139c17.637,-31.691 17.552,-69.579 -0.215,-101.364Zm39.463,0c-0.671,-1.199 -1.369,-2.394 -2.058,-3.589l-6.157,0c1.208,2.063 2.403,4.13 3.557,6.197c13.951,24.953 16.376,53.87 7.325,80.139l7.834,-7.83c6.005,-25.025 2.528,-51.611 -10.501,-74.917Z" style="fill:#00a178;fill-rule:nonzero;"/></g></svg>