<?xml version="1.0" encoding="UTF-8" standalone="no"?><!DOCTYPE svg PUBLIC "-//W3C//DTD SVG 1.1//EN" "http://www.w3.org/Graphics/SVG/1.1/DTD/svg11.dtd"><svg width="100%" height="100%" viewBox="0 0 273 274" version="1.1" xmlns="http://www.w3.org/2000/svg" xmlns:xlink="http://www.w3.org/1999/xlink" xml:space="preserve" xmlns:serif="http://www.serif.com/" style="fill-rule:evenodd;clip-rule:evenodd;stroke-linejoin:round;stroke-miterlimit:2;"><g><path d="M3.444,267.789c-1.466,0 -2.65,1.184 -2.65,2.65c0,1.461 1.184,2.645 2.65,2.645c1.461,0 2.645,-1.184 2.645,-2.645c0,-1.466 -1.184,-2.65 -2.645,-2.65Z" style="fill:#02f6b6;fill-rule:nonzero;"/><path d="M17.489,253.749c-1.466,0 -2.65,1.185 -2.65,2.645c0,1.461 1.184,2.65 2.65,2.65c1.456,0 2.645,-1.189 2.645,-2.65c0,-1.46 -1.189,-2.645 -2.645,-2.645Z" style="fill:#02f6b6;fill-rule:nonzero;"/><path d="M3.444,253.749c-1.466,0 -2.65,1.185 -2.65,2.645c0,1.461 1.184,2.65 2.65,2.65c1.461,0 2.645,-1.189 2.645,-2.65c0,-1.46 -1.184,-2.645 -2.645,-2.645Z" style="fill:#02f6b6;fill-rule:nonzero;"/><path d="M31.528,239.705c-1.46,0 -2.649,1.184 -2.649,2.649c0,1.461 1.189,2.645 2.649,2.645c1.466,0 2.65,-1.184 2.65,-2.645c0,-1.465 -1.184,-2.649 -2.65,-2.649Z" style="fill:#02f6b6;fill-rule:nonzero;"/><path d="M17.489,239.705c-1.466,0 -2.65,1.184 -2.65,2.649c0,1.461 1.184,2.645 2.65,2.645c1.456,0 2.645,-1.184 2.645,-2.645c0,-1.465 -1.189,-2.649 -2.645,-2.649Z" style="fill:#02f6b6;fill-rule:nonzero;"/><path d="M3.444,239.705c-1.466,0 -2.65,1.184 -2.65,2.649c0,1.461 1.184,2.645 2.65,2.645c1.461,0 2.645,-1.184 2.645,-2.645c0,-1.465 -1.184,-2.649 -2.645,-2.649Z" style="fill:#02f6b6;fill-rule:nonzero;"/><path d="M45.573,225.66c-1.461,0 -2.645,1.184 -2.645,2.645c0,1.466 1.184,2.65 2.645,2.65c1.461,0 2.65,-1.184 2.65,-2.65c0,-1.461 -1.189,-2.645 -2.65,-2.645Z" style="fill:#02f6b6;fill-rule:nonzero;"/><path d="M31.528,225.66c-1.46,0 -2.649,1.184 -2.649,2.645c0,1.466 1.189,2.65 2.649,2.65c1.466,0 2.65,-1.184 2.65,-2.65c0,-1.461 -1.184,-2.645 -2.65,-2.645Z" style="fill:#02f6b6;fill-rule:nonzero;"/><path d="M17.489,225.66c-1.466,0 -2.65,1.184 -2.65,2.645c0,1.466 1.184,2.65 2.65,2.65c1.456,0 2.645,-1.184 2.645,-2.65c0,-1.461 -1.189,-2.645 -2.645,-2.645Z" style="fill:#02f6b6;fill-rule:nonzero;"/><path d="M3.444,225.66c-1.466,0 -2.65,1.184 -2.65,2.645c0,1.466 1.184,2.65 2.65,2.65c1.461,0 2.645,-1.184 2.645,-2.65c0,-1.461 -1.184,-2.645 -2.645,-2.645Z" style="fill:#02f6b6;fill-rule:nonzero;"/><path d="M59.618,211.615c-1.466,0 -2.65,1.185 -2.65,2.645c0,1.466 1.184,2.65 2.65,2.65c1.46,0 2.645,-1.184 2.645,-2.65c0,-1.46 -1.185,-2.645 -2.645,-2.645Z" style="fill:#02f6b6;fill-rule:nonzero;"/><path d="M45.573,211.615c-1.461,0 -2.645,1.185 -2.645,2.645c0,1.466 1.184,2.65 2.645,2.65c1.461,0 2.65,-1.184 2.65,-2.65c0,-1.46 -1.189,-2.645 -2.65,-2.645Z" style="fill:#02f6b6;fill-rule:nonzero;"/><path d="M31.528,211.615c-1.46,0 -2.649,1.185 -2.649,2.645c0,1.466 1.189,2.65 2.649,2.65c1.466,0 2.65,-1.184 2.65,-2.65c0,-1.46 -1.184,-2.645 -2.65,-2.645Z" style="fill:#02f6b6;fill-rule:nonzero;"/><path d="M17.489,211.615c-1.466,0 -2.65,1.185 -2.65,2.645c0,1.466 1.184,2.65 2.65,2.65c1.456,0 2.645,-1.184 2.645,-2.65c0,-1.46 -1.189,-2.645 -2.645,-2.645Z" style="fill:#02f6b6;fill-rule:nonzero;"/><path d="M3.444,211.615c-1.466,0 -2.65,1.185 -2.65,2.645c0,1.466 1.184,2.65 2.65,2.65c1.461,0 2.645,-1.184 2.645,-2.65c0,-1.46 -1.184,-2.645 -2.645,-2.645Z" style="fill:#02f6b6;fill-rule:nonzero;"/><path d="M73.662,197.571c-1.465,0 -2.649,1.189 -2.649,2.65c0,1.46 1.184,2.644 2.649,2.644c1.461,0 2.65,-1.184 2.65,-2.644c0,-1.461 -1.189,-2.65 -2.65,-2.65Z" style="fill:#02f6b6;fill-rule:nonzero;"/><path d="M59.618,197.571c-1.466,0 -2.65,1.189 -2.65,2.65c0,1.46 1.184,2.644 2.65,2.644c1.46,0 2.645,-1.184 2.645,-2.644c0,-1.461 -1.185,-2.65 -2.645,-2.65Z" style="fill:#02f6b6;fill-rule:nonzero;"/><path d="M45.573,197.571c-1.461,0 -2.645,1.189 -2.645,2.65c0,1.46 1.184,2.644 2.645,2.644c1.461,0 2.65,-1.184 2.65,-2.644c0,-1.461 -1.189,-2.65 -2.65,-2.65Z" style="fill:#02f6b6;fill-rule:nonzero;"/><path d="M31.528,197.571c-1.46,0 -2.649,1.189 -2.649,2.65c0,1.46 1.189,2.644 2.649,2.644c1.466,0 2.65,-1.184 2.65,-2.644c0,-1.461 -1.184,-2.65 -2.65,-2.65Z" style="fill:#02f6b6;fill-rule:nonzero;"/><path d="M17.489,197.571c-1.466,0 -2.65,1.189 -2.65,2.65c0,1.46 1.184,2.644 2.65,2.644c1.456,0 2.645,-1.184 2.645,-2.644c0,-1.461 -1.189,-2.65 -2.645,-2.65Z" style="fill:#02f6b6;fill-rule:nonzero;"/><path d="M3.444,197.571c-1.466,0 -2.65,1.189 -2.65,2.65c0,1.46 1.184,2.644 2.65,2.644c1.461,0 2.645,-1.184 2.645,-2.644c0,-1.461 -1.184,-2.65 -2.645,-2.65Z" style="fill:#02f6b6;fill-rule:nonzero;"/><path d="M87.702,183.526c-1.461,0 -2.645,1.189 -2.645,2.65c0,1.461 1.184,2.65 2.645,2.65c1.466,0 2.65,-1.189 2.65,-2.65c0,-1.461 -1.184,-2.65 -2.65,-2.65Z" style="fill:#02f6b6;fill-rule:nonzero;"/><path d="M73.662,183.526c-1.465,0 -2.649,1.189 -2.649,2.65c0,1.461 1.184,2.65 2.649,2.65c1.461,0 2.65,-1.189 2.65,-2.65c0,-1.461 -1.189,-2.65 -2.65,-2.65Z" style="fill:#02f6b6;fill-rule:nonzero;"/><path d="M59.618,183.526c-1.466,0 -2.65,1.189 -2.65,2.65c0,1.461 1.184,2.65 2.65,2.65c1.46,0 2.645,-1.189 2.645,-2.65c0,-1.461 -1.185,-2.65 -2.645,-2.65Z" style="fill:#02f6b6;fill-rule:nonzero;"/><path d="M45.573,183.526c-1.461,0 -2.645,1.189 -2.645,2.65c0,1.461 1.184,2.65 2.645,2.65c1.461,0 2.65,-1.189 2.65,-2.65c0,-1.461 -1.189,-2.65 -2.65,-2.65Z" style="fill:#02f6b6;fill-rule:nonzero;"/><path d="M31.528,183.526c-1.46,0 -2.649,1.189 -2.649,2.65c0,1.461 1.189,2.65 2.649,2.65c1.466,0 2.65,-1.189 2.65,-2.65c0,-1.461 -1.184,-2.65 -2.65,-2.65Z" style="fill:#02f6b6;fill-rule:nonzero;"/><path d="M17.489,183.526c-1.466,0 -2.65,1.189 -2.65,2.65c0,1.461 1.184,2.65 2.65,2.65c1.456,0 2.645,-1.189 2.645,-2.65c0,-1.461 -1.189,-2.65 -2.645,-2.65Z" style="fill:#02f6b6;fill-rule:nonzero;"/><path d="M3.444,183.526c-1.466,0 -2.65,1.189 -2.65,2.65c0,1.461 1.184,2.65 2.65,2.65c1.461,0 2.645,-1.189 2.645,-2.65c0,-1.461 -1.184,-2.65 -2.645,-2.65Z" style="fill:#02f6b6;fill-rule:nonzero;"/><path d="M101.752,169.482c-1.466,0 -2.65,1.189 -2.65,2.649c0,1.466 1.184,2.65 2.65,2.65c1.46,0 2.645,-1.184 2.645,-2.65c0,-1.46 -1.185,-2.649 -2.645,-2.649Z" style="fill:#02f6b6;fill-rule:nonzero;"/><path d="M87.702,169.482c-1.461,0 -2.645,1.189 -2.645,2.649c0,1.466 1.184,2.65 2.645,2.65c1.466,0 2.65,-1.184 2.65,-2.65c0,-1.46 -1.184,-2.649 -2.65,-2.649Z" style="fill:#02f6b6;fill-rule:nonzero;"/><path d="M73.662,169.482c-1.465,0 -2.649,1.189 -2.649,2.649c0,1.466 1.184,2.65 2.649,2.65c1.461,0 2.65,-1.184 2.65,-2.65c0,-1.46 -1.189,-2.649 -2.65,-2.649Z" style="fill:#02f6b6;fill-rule:nonzero;"/><path d="M59.618,169.482c-1.466,0 -2.65,1.189 -2.65,2.649c0,1.466 1.184,2.65 2.65,2.65c1.46,0 2.645,-1.184 2.645,-2.65c0,-1.46 -1.185,-2.649 -2.645,-2.649Z" style="fill:#02f6b6;fill-rule:nonzero;"/><path d="M45.573,169.482c-1.461,0 -2.645,1.189 -2.645,2.649c0,1.466 1.184,2.65 2.645,2.65c1.461,0 2.65,-1.184 2.65,-2.65c0,-1.46 -1.189,-2.649 -2.65,-2.649Z" style="fill:#02f6b6;fill-rule:nonzero;"/><path d="M31.528,169.482c-1.46,0 -2.649,1.189 -2.649,2.649c0,1.466 1.189,2.65 2.649,2.65c1.466,0 2.65,-1.184 2.65,-2.65c0,-1.46 -1.184,-2.649 -2.65,-2.649Z" style="fill:#02f6b6;fill-rule:nonzero;"/><path d="M17.489,169.482c-1.466,0 -2.65,1.189 -2.65,2.649c0,1.466 1.184,2.65 2.65,2.65c1.456,0 2.645,-1.184 2.645,-2.65c0,-1.46 -1.189,-2.649 -2.645,-2.649Z" style="fill:#02f6b6;fill-rule:nonzero;"/><path d="M3.444,169.482c-1.466,0 -2.65,1.189 -2.65,2.649c0,1.466 1.184,2.65 2.65,2.65c1.461,0 2.645,-1.184 2.645,-2.65c0,-1.46 -1.184,-2.649 -2.645,-2.649Z" style="fill:#02f6b6;fill-rule:nonzero;"/><path d="M115.791,155.437c-1.46,0 -2.649,1.189 -2.649,2.65c0,1.465 1.189,2.649 2.649,2.649c1.466,0 2.65,-1.184 2.65,-2.649c0,-1.461 -1.184,-2.65 -2.65,-2.65Z" style="fill:#02f6b6;fill-rule:nonzero;"/><path d="M101.752,155.437c-1.466,0 -2.65,1.189 -2.65,2.65c0,1.465 1.184,2.649 2.65,2.649c1.46,0 2.645,-1.184 2.645,-2.649c0,-1.461 -1.185,-2.65 -2.645,-2.65Z" style="fill:#02f6b6;fill-rule:nonzero;"/><path d="M87.702,155.437c-1.461,0 -2.645,1.189 -2.645,2.65c0,1.465 1.184,2.649 2.645,2.649c1.466,0 2.65,-1.184 2.65,-2.649c0,-1.461 -1.184,-2.65 -2.65,-2.65Z" style="fill:#02f6b6;fill-rule:nonzero;"/><path d="M73.662,155.437c-1.465,0 -2.649,1.189 -2.649,2.65c0,1.465 1.184,2.649 2.649,2.649c1.461,0 2.65,-1.184 2.65,-2.649c0,-1.461 -1.189,-2.65 -2.65,-2.65Z" style="fill:#02f6b6;fill-rule:nonzero;"/><path d="M59.618,155.437c-1.466,0 -2.65,1.189 -2.65,2.65c0,1.465 1.184,2.649 2.65,2.649c1.46,0 2.645,-1.184 2.645,-2.649c0,-1.461 -1.185,-2.65 -2.645,-2.65Z" style="fill:#02f6b6;fill-rule:nonzero;"/><path d="M45.573,155.437c-1.461,0 -2.645,1.189 -2.645,2.65c0,1.465 1.184,2.649 2.645,2.649c1.461,0 2.65,-1.184 2.65,-2.649c0,-1.461 -1.189,-2.65 -2.65,-2.65Z" style="fill:#02f6b6;fill-rule:nonzero;"/><path d="M31.528,155.437c-1.46,0 -2.649,1.189 -2.649,2.65c0,1.465 1.189,2.649 2.649,2.649c1.466,0 2.65,-1.184 2.65,-2.649c0,-1.461 -1.184,-2.65 -2.65,-2.65Z" style="fill:#02f6b6;fill-rule:nonzero;"/><path d="M17.489,155.437c-1.466,0 -2.65,1.189 -2.65,2.65c0,1.465 1.184,2.649 2.65,2.649c1.456,0 2.645,-1.184 2.645,-2.649c0,-1.461 -1.189,-2.65 -2.645,-2.65Z" style="fill:#02f6b6;fill-rule:nonzero;"/><path d="M3.444,155.437c-1.466,0 -2.65,1.189 -2.65,2.65c0,1.465 1.184,2.649 2.65,2.649c1.461,0 2.645,-1.184 2.645,-2.649c0,-1.461 -1.184,-2.65 -2.645,-2.65Z" style="fill:#02f6b6;fill-rule:nonzero;"/><path d="M129.836,141.397c-1.461,0 -2.65,1.184 -2.65,2.645c0,1.461 1.189,2.65 2.65,2.65c1.466,0 2.65,-1.189 2.65,-2.65c0,-1.461 -1.184,-2.645 -2.65,-2.645Z" style="fill:#02f6b6;fill-rule:nonzero;"/><path d="M115.791,141.397c-1.46,0 -2.649,1.184 -2.649,2.645c0,1.461 1.189,2.65 2.649,2.65c1.466,0 2.65,-1.189 2.65,-2.65c0,-1.461 -1.184,-2.645 -2.65,-2.645Z" style="fill:#02f6b6;fill-rule:nonzero;"/><path d="M101.752,141.397c-1.466,0 -2.65,1.184 -2.65,2.645c0,1.461 1.184,2.65 2.65,2.65c1.46,0 2.645,-1.189 2.645,-2.65c0,-1.461 -1.185,-2.645 -2.645,-2.645Z" style="fill:#02f6b6;fill-rule:nonzero;"/><path d="M87.702,141.397c-1.461,0 -2.645,1.184 -2.645,2.645c0,1.461 1.184,2.65 2.645,2.65c1.466,0 2.65,-1.189 2.65,-2.65c0,-1.461 -1.184,-2.645 -2.65,-2.645Z" style="fill:#02f6b6;fill-rule:nonzero;"/><path d="M73.662,141.397c-1.465,0 -2.649,1.184 -2.649,2.645c0,1.461 1.184,2.65 2.649,2.65c1.461,0 2.65,-1.189 2.65,-2.65c0,-1.461 -1.189,-2.645 -2.65,-2.645Z" style="fill:#02f6b6;fill-rule:nonzero;"/><path d="M59.618,141.397c-1.466,0 -2.65,1.184 -2.65,2.645c0,1.461 1.184,2.65 2.65,2.65c1.46,0 2.645,-1.189 2.645,-2.65c0,-1.461 -1.185,-2.645 -2.645,-2.645Z" style="fill:#02f6b6;fill-rule:nonzero;"/><path d="M45.573,141.397c-1.461,0 -2.645,1.184 -2.645,2.645c0,1.461 1.184,2.65 2.645,2.65c1.461,0 2.65,-1.189 2.65,-2.65c0,-1.461 -1.189,-2.645 -2.65,-2.645Z" style="fill:#02f6b6;fill-rule:nonzero;"/><path d="M31.528,141.397c-1.46,0 -2.649,1.184 -2.649,2.645c0,1.461 1.189,2.65 2.649,2.65c1.466,0 2.65,-1.189 2.65,-2.65c0,-1.461 -1.184,-2.645 -2.65,-2.645Z" style="fill:#02f6b6;fill-rule:nonzero;"/><path d="M17.489,141.397c-1.466,0 -2.65,1.184 -2.65,2.645c0,1.461 1.184,2.65 2.65,2.65c1.456,0 2.645,-1.189 2.645,-2.65c0,-1.461 -1.189,-2.645 -2.645,-2.645Z" style="fill:#02f6b6;fill-rule:nonzero;"/><path d="M3.444,141.397c-1.466,0 -2.65,1.184 -2.65,2.645c0,1.461 1.184,2.65 2.65,2.65c1.461,0 2.645,-1.189 2.645,-2.65c0,-1.461 -1.184,-2.645 -2.645,-2.645Z" style="fill:#02f6b6;fill-rule:nonzero;"/><path d="M143.881,127.352c-1.461,0 -2.645,1.185 -2.645,2.65c0,1.461 1.184,2.645 2.645,2.645c1.46,0 2.645,-1.184 2.645,-2.645c0,-1.465 -1.185,-2.65 -2.645,-2.65Z" style="fill:#02f6b6;fill-rule:nonzero;"/><path d="M129.836,127.352c-1.461,0 -2.65,1.185 -2.65,2.65c0,1.461 1.189,2.645 2.65,2.645c1.466,0 2.65,-1.184 2.65,-2.645c0,-1.465 -1.184,-2.65 -2.65,-2.65Z" style="fill:#02f6b6;fill-rule:nonzero;"/><path d="M115.791,127.352c-1.46,0 -2.649,1.185 -2.649,2.65c0,1.461 1.189,2.645 2.649,2.645c1.466,0 2.65,-1.184 2.65,-2.645c0,-1.465 -1.184,-2.65 -2.65,-2.65Z" style="fill:#02f6b6;fill-rule:nonzero;"/><path d="M101.752,127.352c-1.466,0 -2.65,1.185 -2.65,2.65c0,1.461 1.184,2.645 2.65,2.645c1.46,0 2.645,-1.184 2.645,-2.645c0,-1.465 -1.185,-2.65 -2.645,-2.65Z" style="fill:#02f6b6;fill-rule:nonzero;"/><path d="M87.702,127.352c-1.461,0 -2.645,1.185 -2.645,2.65c0,1.461 1.184,2.645 2.645,2.645c1.466,0 2.65,-1.184 2.65,-2.645c0,-1.465 -1.184,-2.65 -2.65,-2.65Z" style="fill:#02f6b6;fill-rule:nonzero;"/><path d="M73.662,127.352c-1.465,0 -2.649,1.185 -2.649,2.65c0,1.461 1.184,2.645 2.649,2.645c1.461,0 2.65,-1.184 2.65,-2.645c0,-1.465 -1.189,-2.65 -2.65,-2.65Z" style="fill:#02f6b6;fill-rule:nonzero;"/><path d="M59.618,127.352c-1.466,0 -2.65,1.185 -2.65,2.65c0,1.461 1.184,2.645 2.65,2.645c1.46,0 2.645,-1.184 2.645,-2.645c0,-1.465 -1.185,-2.65 -2.645,-2.65Z" style="fill:#02f6b6;fill-rule:nonzero;"/><path d="M45.573,127.352c-1.461,0 -2.645,1.185 -2.645,2.65c0,1.461 1.184,2.645 2.645,2.645c1.461,0 2.65,-1.184 2.65,-2.645c0,-1.465 -1.189,-2.65 -2.65,-2.65Z" style="fill:#02f6b6;fill-rule:nonzero;"/><path d="M31.528,127.352c-1.46,0 -2.649,1.185 -2.649,2.65c0,1.461 1.189,2.645 2.649,2.645c1.466,0 2.65,-1.184 2.65,-2.645c0,-1.465 -1.184,-2.65 -2.65,-2.65Z" style="fill:#02f6b6;fill-rule:nonzero;"/><path d="M17.489,127.352c-1.466,0 -2.65,1.185 -2.65,2.65c0,1.461 1.184,2.645 2.65,2.645c1.456,0 2.645,-1.184 2.645,-2.645c0,-1.465 -1.189,-2.65 -2.645,-2.65Z" style="fill:#02f6b6;fill-rule:nonzero;"/><path d="M3.444,127.352c-1.466,0 -2.65,1.185 -2.65,2.65c0,1.461 1.184,2.645 2.65,2.645c1.461,0 2.645,-1.184 2.645,-2.645c0,-1.465 -1.184,-2.65 -2.645,-2.65Z" style="fill:#02f6b6;fill-rule:nonzero;"/><path d="M157.925,113.308c-1.465,0 -2.649,1.184 -2.649,2.65c0,1.46 1.184,2.644 2.649,2.644c1.461,0 2.65,-1.184 2.65,-2.644c0,-1.466 -1.189,-2.65 -2.65,-2.65Z" style="fill:#02f6b6;fill-rule:nonzero;"/><path d="M143.881,113.308c-1.461,0 -2.645,1.184 -2.645,2.65c0,1.46 1.184,2.644 2.645,2.644c1.46,0 2.645,-1.184 2.645,-2.644c0,-1.466 -1.185,-2.65 -2.645,-2.65Z" style="fill:#02f6b6;fill-rule:nonzero;"/><path d="M129.836,113.308c-1.461,0 -2.65,1.184 -2.65,2.65c0,1.46 1.189,2.644 2.65,2.644c1.466,0 2.65,-1.184 2.65,-2.644c0,-1.466 -1.184,-2.65 -2.65,-2.65Z" style="fill:#02f6b6;fill-rule:nonzero;"/><path d="M115.791,113.308c-1.46,0 -2.649,1.184 -2.649,2.65c0,1.46 1.189,2.644 2.649,2.644c1.466,0 2.65,-1.184 2.65,-2.644c0,-1.466 -1.184,-2.65 -2.65,-2.65Z" style="fill:#02f6b6;fill-rule:nonzero;"/><path d="M101.752,113.308c-1.466,0 -2.65,1.184 -2.65,2.65c0,1.46 1.184,2.644 2.65,2.644c1.46,0 2.645,-1.184 2.645,-2.644c0,-1.466 -1.185,-2.65 -2.645,-2.65Z" style="fill:#02f6b6;fill-rule:nonzero;"/><path d="M87.702,113.308c-1.461,0 -2.645,1.184 -2.645,2.65c0,1.46 1.184,2.644 2.645,2.644c1.466,0 2.65,-1.184 2.65,-2.644c0,-1.466 -1.184,-2.65 -2.65,-2.65Z" style="fill:#02f6b6;fill-rule:nonzero;"/><path d="M73.662,113.308c-1.465,0 -2.649,1.184 -2.649,2.65c0,1.46 1.184,2.644 2.649,2.644c1.461,0 2.65,-1.184 2.65,-2.644c0,-1.466 -1.189,-2.65 -2.65,-2.65Z" style="fill:#02f6b6;fill-rule:nonzero;"/><path d="M59.618,113.308c-1.466,0 -2.65,1.184 -2.65,2.65c0,1.46 1.184,2.644 2.65,2.644c1.46,0 2.645,-1.184 2.645,-2.644c0,-1.466 -1.185,-2.65 -2.645,-2.65Z" style="fill:#02f6b6;fill-rule:nonzero;"/><path d="M45.573,113.308c-1.461,0 -2.645,1.184 -2.645,2.65c0,1.46 1.184,2.644 2.645,2.644c1.461,0 2.65,-1.184 2.65,-2.644c0,-1.466 -1.189,-2.65 -2.65,-2.65Z" style="fill:#02f6b6;fill-rule:nonzero;"/><path d="M31.528,113.308c-1.46,0 -2.649,1.184 -2.649,2.65c0,1.46 1.189,2.644 2.649,2.644c1.466,0 2.65,-1.184 2.65,-2.644c0,-1.466 -1.184,-2.65 -2.65,-2.65Z" style="fill:#02f6b6;fill-rule:nonzero;"/><path d="M17.489,113.308c-1.466,0 -2.65,1.184 -2.65,2.65c0,1.46 1.184,2.644 2.65,2.644c1.456,0 2.645,-1.184 2.645,-2.644c0,-1.466 -1.189,-2.65 -2.645,-2.65Z" style="fill:#02f6b6;fill-rule:nonzero;"/><path d="M3.444,113.308c-1.466,0 -2.65,1.184 -2.65,2.65c0,1.46 1.184,2.644 2.65,2.644c1.461,0 2.645,-1.184 2.645,-2.644c0,-1.466 -1.184,-2.65 -2.645,-2.65Z" style="fill:#02f6b6;fill-rule:nonzero;"/><path d="M171.97,99.263c-1.461,0 -2.65,1.184 -2.65,2.65c0,1.461 1.189,2.645 2.65,2.645c1.461,0 2.645,-1.184 2.645,-2.645c0,-1.466 -1.184,-2.65 -2.645,-2.65Z" style="fill:#02f6b6;fill-rule:nonzero;"/><path d="M157.925,99.263c-1.465,0 -2.649,1.184 -2.649,2.65c0,1.461 1.184,2.645 2.649,2.645c1.461,0 2.65,-1.184 2.65,-2.645c0,-1.466 -1.189,-2.65 -2.65,-2.65Z" style="fill:#02f6b6;fill-rule:nonzero;"/><path d="M143.881,99.263c-1.461,0 -2.645,1.184 -2.645,2.65c0,1.461 1.184,2.645 2.645,2.645c1.46,0 2.645,-1.184 2.645,-2.645c0,-1.466 -1.185,-2.65 -2.645,-2.65Z" style="fill:#02f6b6;fill-rule:nonzero;"/><path d="M129.836,99.263c-1.461,0 -2.65,1.184 -2.65,2.65c0,1.461 1.189,2.645 2.65,2.645c1.466,0 2.65,-1.184 2.65,-2.645c0,-1.466 -1.184,-2.65 -2.65,-2.65Z" style="fill:#02f6b6;fill-rule:nonzero;"/><path d="M115.791,99.263c-1.46,0 -2.649,1.184 -2.649,2.65c0,1.461 1.189,2.645 2.649,2.645c1.466,0 2.65,-1.184 2.65,-2.645c0,-1.466 -1.184,-2.65 -2.65,-2.65Z" style="fill:#02f6b6;fill-rule:nonzero;"/><path d="M101.752,99.263c-1.466,0 -2.65,1.184 -2.65,2.65c0,1.461 1.184,2.645 2.65,2.645c1.46,0 2.645,-1.184 2.645,-2.645c0,-1.466 -1.185,-2.65 -2.645,-2.65Z" style="fill:#02f6b6;fill-rule:nonzero;"/><path d="M87.702,99.263c-1.461,0 -2.645,1.184 -2.645,2.65c0,1.461 1.184,2.645 2.645,2.645c1.466,0 2.65,-1.184 2.65,-2.645c0,-1.466 -1.184,-2.65 -2.65,-2.65Z" style="fill:#02f6b6;fill-rule:nonzero;"/><path d="M73.662,99.263c-1.465,0 -2.649,1.184 -2.649,2.65c0,1.461 1.184,2.645 2.649,2.645c1.461,0 2.65,-1.184 2.65,-2.645c0,-1.466 -1.189,-2.65 -2.65,-2.65Z" style="fill:#02f6b6;fill-rule:nonzero;"/><path d="M59.618,99.263c-1.466,0 -2.65,1.184 -2.65,2.65c0,1.461 1.184,2.645 2.65,2.645c1.46,0 2.645,-1.184 2.645,-2.645c0,-1.466 -1.185,-2.65 -2.645,-2.65Z" style="fill:#02f6b6;fill-rule:nonzero;"/><path d="M45.573,99.263c-1.461,0 -2.645,1.184 -2.645,2.65c0,1.461 1.184,2.645 2.645,2.645c1.461,0 2.65,-1.184 2.65,-2.645c0,-1.466 -1.189,-2.65 -2.65,-2.65Z" style="fill:#02f6b6;fill-rule:nonzero;"/><path d="M31.528,99.263c-1.46,0 -2.649,1.184 -2.649,2.65c0,1.461 1.189,2.645 2.649,2.645c1.466,0 2.65,-1.184 2.65,-2.645c0,-1.466 -1.184,-2.65 -2.65,-2.65Z" style="fill:#02f6b6;fill-rule:nonzero;"/><path d="M17.489,99.263c-1.466,0 -2.65,1.184 -2.65,2.65c0,1.461 1.184,2.645 2.65,2.645c1.456,0 2.645,-1.184 2.645,-2.645c0,-1.466 -1.189,-2.65 -2.645,-2.65Z" style="fill:#02f6b6;fill-rule:nonzero;"/><path d="M3.444,99.263c-1.466,0 -2.65,1.184 -2.65,2.65c0,1.461 1.184,2.645 2.65,2.645c1.461,0 2.645,-1.184 2.645,-2.645c0,-1.466 -1.184,-2.65 -2.645,-2.65Z" style="fill:#02f6b6;fill-rule:nonzero;"/><path d="M186.01,85.218c-1.461,0 -2.645,1.19 -2.645,2.65c0,1.461 1.184,2.645 2.645,2.645c1.465,0 2.649,-1.184 2.649,-2.645c0,-1.46 -1.184,-2.65 -2.649,-2.65Z" style="fill:#02f6b6;fill-rule:nonzero;"/><path d="M171.97,85.218c-1.461,0 -2.65,1.19 -2.65,2.65c0,1.461 1.189,2.645 2.65,2.645c1.461,0 2.645,-1.184 2.645,-2.645c0,-1.46 -1.184,-2.65 -2.645,-2.65Z" style="fill:#02f6b6;fill-rule:nonzero;"/><path d="M157.925,85.218c-1.465,0 -2.649,1.19 -2.649,2.65c0,1.461 1.184,2.645 2.649,2.645c1.461,0 2.65,-1.184 2.65,-2.645c0,-1.46 -1.189,-2.65 -2.65,-2.65Z" style="fill:#02f6b6;fill-rule:nonzero;"/><path d="M143.881,85.218c-1.461,0 -2.645,1.19 -2.645,2.65c0,1.461 1.184,2.645 2.645,2.645c1.46,0 2.645,-1.184 2.645,-2.645c0,-1.46 -1.185,-2.65 -2.645,-2.65Z" style="fill:#02f6b6;fill-rule:nonzero;"/><path d="M129.836,85.218c-1.461,0 -2.65,1.19 -2.65,2.65c0,1.461 1.189,2.645 2.65,2.645c1.466,0 2.65,-1.184 2.65,-2.645c0,-1.46 -1.184,-2.65 -2.65,-2.65Z" style="fill:#02f6b6;fill-rule:nonzero;"/><path d="M115.791,85.218c-1.46,0 -2.649,1.19 -2.649,2.65c0,1.461 1.189,2.645 2.649,2.645c1.466,0 2.65,-1.184 2.65,-2.645c0,-1.46 -1.184,-2.65 -2.65,-2.65Z" style="fill:#02f6b6;fill-rule:nonzero;"/><path d="M101.752,85.218c-1.466,0 -2.65,1.19 -2.65,2.65c0,1.461 1.184,2.645 2.65,2.645c1.46,0 2.645,-1.184 2.645,-2.645c0,-1.46 -1.185,-2.65 -2.645,-2.65Z" style="fill:#02f6b6;fill-rule:nonzero;"/><path d="M87.702,85.218c-1.461,0 -2.645,1.19 -2.645,2.65c0,1.461 1.184,2.645 2.645,2.645c1.466,0 2.65,-1.184 2.65,-2.645c0,-1.46 -1.184,-2.65 -2.65,-2.65Z" style="fill:#02f6b6;fill-rule:nonzero;"/><path d="M73.662,85.218c-1.465,0 -2.649,1.19 -2.649,2.65c0,1.461 1.184,2.645 2.649,2.645c1.461,0 2.65,-1.184 2.65,-2.645c0,-1.46 -1.189,-2.65 -2.65,-2.65Z" style="fill:#02f6b6;fill-rule:nonzero;"/><path d="M59.618,85.218c-1.466,0 -2.65,1.19 -2.65,2.65c0,1.461 1.184,2.645 2.65,2.645c1.46,0 2.645,-1.184 2.645,-2.645c0,-1.46 -1.185,-2.65 -2.645,-2.65Z" style="fill:#02f6b6;fill-rule:nonzero;"/><path d="M45.573,85.218c-1.461,0 -2.645,1.19 -2.645,2.65c0,1.461 1.184,2.645 2.645,2.645c1.461,0 2.65,-1.184 2.65,-2.645c0,-1.46 -1.189,-2.65 -2.65,-2.65Z" style="fill:#02f6b6;fill-rule:nonzero;"/><path d="M31.528,85.218c-1.46,0 -2.649,1.19 -2.649,2.65c0,1.461 1.189,2.645 2.649,2.645c1.466,0 2.65,-1.184 2.65,-2.645c0,-1.46 -1.184,-2.65 -2.65,-2.65Z" style="fill:#02f6b6;fill-rule:nonzero;"/><path d="M17.489,85.218c-1.466,0 -2.65,1.19 -2.65,2.65c0,1.461 1.184,2.645 2.65,2.645c1.456,0 2.645,-1.184 2.645,-2.645c0,-1.46 -1.189,-2.65 -2.645,-2.65Z" style="fill:#02f6b6;fill-rule:nonzero;"/><path d="M3.444,85.218c-1.466,0 -2.65,1.19 -2.65,2.65c0,1.461 1.184,2.645 2.65,2.645c1.461,0 2.645,-1.184 2.645,-2.645c0,-1.46 -1.184,-2.65 -2.645,-2.65Z" style="fill:#02f6b6;fill-rule:nonzero;"/><path d="M200.059,71.179c-1.465,0 -2.649,1.184 -2.649,2.645c0,1.46 1.184,2.649 2.649,2.649c1.456,0 2.645,-1.189 2.645,-2.649c0,-1.461 -1.189,-2.645 -2.645,-2.645Z" style="fill:#02f6b6;fill-rule:nonzero;"/><path d="M186.01,71.179c-1.461,0 -2.645,1.184 -2.645,2.645c0,1.46 1.184,2.649 2.645,2.649c1.465,0 2.649,-1.189 2.649,-2.649c0,-1.461 -1.184,-2.645 -2.649,-2.645Z" style="fill:#02f6b6;fill-rule:nonzero;"/><path d="M171.97,71.179c-1.461,0 -2.65,1.184 -2.65,2.645c0,1.46 1.189,2.649 2.65,2.649c1.461,0 2.645,-1.189 2.645,-2.649c0,-1.461 -1.184,-2.645 -2.645,-2.645Z" style="fill:#02f6b6;fill-rule:nonzero;"/><path d="M157.925,71.179c-1.465,0 -2.649,1.184 -2.649,2.645c0,1.46 1.184,2.649 2.649,2.649c1.461,0 2.65,-1.189 2.65,-2.649c0,-1.461 -1.189,-2.645 -2.65,-2.645Z" style="fill:#02f6b6;fill-rule:nonzero;"/><path d="M143.881,71.179c-1.461,0 -2.645,1.184 -2.645,2.645c0,1.46 1.184,2.649 2.645,2.649c1.46,0 2.645,-1.189 2.645,-2.649c0,-1.461 -1.185,-2.645 -2.645,-2.645Z" style="fill:#02f6b6;fill-rule:nonzero;"/><path d="M129.836,71.179c-1.461,0 -2.65,1.184 -2.65,2.645c0,1.46 1.189,2.649 2.65,2.649c1.466,0 2.65,-1.189 2.65,-2.649c0,-1.461 -1.184,-2.645 -2.65,-2.645Z" style="fill:#02f6b6;fill-rule:nonzero;"/><path d="M115.791,71.179c-1.46,0 -2.649,1.184 -2.649,2.645c0,1.46 1.189,2.649 2.649,2.649c1.466,0 2.65,-1.189 2.65,-2.649c0,-1.461 -1.184,-2.645 -2.65,-2.645Z" style="fill:#02f6b6;fill-rule:nonzero;"/><path d="M101.752,71.179c-1.466,0 -2.65,1.184 -2.65,2.645c0,1.46 1.184,2.649 2.65,2.649c1.46,0 2.645,-1.189 2.645,-2.649c0,-1.461 -1.185,-2.645 -2.645,-2.645Z" style="fill:#02f6b6;fill-rule:nonzero;"/><path d="M87.702,71.179c-1.461,0 -2.645,1.184 -2.645,2.645c0,1.46 1.184,2.649 2.645,2.649c1.466,0 2.65,-1.189 2.65,-2.649c0,-1.461 -1.184,-2.645 -2.65,-2.645Z" style="fill:#02f6b6;fill-rule:nonzero;"/><path d="M73.662,71.179c-1.465,0 -2.649,1.184 -2.649,2.645c0,1.46 1.184,2.649 2.649,2.649c1.461,0 2.65,-1.189 2.65,-2.649c0,-1.461 -1.189,-2.645 -2.65,-2.645Z" style="fill:#02f6b6;fill-rule:nonzero;"/><path d="M59.618,71.179c-1.466,0 -2.65,1.184 -2.65,2.645c0,1.46 1.184,2.649 2.65,2.649c1.46,0 2.645,-1.189 2.645,-2.649c0,-1.461 -1.185,-2.645 -2.645,-2.645Z" style="fill:#02f6b6;fill-rule:nonzero;"/><path d="M45.573,71.179c-1.461,0 -2.645,1.184 -2.645,2.645c0,1.46 1.184,2.649 2.645,2.649c1.461,0 2.65,-1.189 2.65,-2.649c0,-1.461 -1.189,-2.645 -2.65,-2.645Z" style="fill:#02f6b6;fill-rule:nonzero;"/><path d="M31.528,71.179c-1.46,0 -2.649,1.184 -2.649,2.645c0,1.46 1.189,2.649 2.649,2.649c1.466,0 2.65,-1.189 2.65,-2.649c0,-1.461 -1.184,-2.645 -2.65,-2.645Z" style="fill:#02f6b6;fill-rule:nonzero;"/><path d="M17.489,71.179c-1.466,0 -2.65,1.184 -2.65,2.645c0,1.46 1.184,2.649 2.65,2.649c1.456,0 2.645,-1.189 2.645,-2.649c0,-1.461 -1.189,-2.645 -2.645,-2.645Z" style="fill:#02f6b6;fill-rule:nonzero;"/><path d="M3.444,71.179c-1.466,0 -2.65,1.184 -2.65,2.645c0,1.46 1.184,2.649 2.65,2.649c1.461,0 2.645,-1.189 2.645,-2.649c0,-1.461 -1.184,-2.645 -2.645,-2.645Z" style="fill:#02f6b6;fill-rule:nonzero;"/><path d="M214.099,57.134c-1.466,0 -2.65,1.184 -2.65,2.645c0,1.466 1.184,2.65 2.65,2.65c1.466,0 2.65,-1.184 2.65,-2.65c0,-1.461 -1.184,-2.645 -2.65,-2.645Z" style="fill:#02f6b6;fill-rule:nonzero;"/><path d="M200.059,57.134c-1.465,0 -2.649,1.184 -2.649,2.645c0,1.466 1.184,2.65 2.649,2.65c1.456,0 2.645,-1.184 2.645,-2.65c0,-1.461 -1.189,-2.645 -2.645,-2.645Z" style="fill:#02f6b6;fill-rule:nonzero;"/><path d="M186.01,57.134c-1.461,0 -2.645,1.184 -2.645,2.645c0,1.466 1.184,2.65 2.645,2.65c1.465,0 2.649,-1.184 2.649,-2.65c0,-1.461 -1.184,-2.645 -2.649,-2.645Z" style="fill:#02f6b6;fill-rule:nonzero;"/><path d="M171.97,57.134c-1.461,0 -2.65,1.184 -2.65,2.645c0,1.466 1.189,2.65 2.65,2.65c1.461,0 2.645,-1.184 2.645,-2.65c0,-1.461 -1.184,-2.645 -2.645,-2.645Z" style="fill:#02f6b6;fill-rule:nonzero;"/><path d="M157.925,57.134c-1.465,0 -2.649,1.184 -2.649,2.645c0,1.466 1.184,2.65 2.649,2.65c1.461,0 2.65,-1.184 2.65,-2.65c0,-1.461 -1.189,-2.645 -2.65,-2.645Z" style="fill:#02f6b6;fill-rule:nonzero;"/><path d="M143.881,57.134c-1.461,0 -2.645,1.184 -2.645,2.645c0,1.466 1.184,2.65 2.645,2.65c1.46,0 2.645,-1.184 2.645,-2.65c0,-1.461 -1.185,-2.645 -2.645,-2.645Z" style="fill:#02f6b6;fill-rule:nonzero;"/><path d="M129.836,57.134c-1.461,0 -2.65,1.184 -2.65,2.645c0,1.466 1.189,2.65 2.65,2.65c1.466,0 2.65,-1.184 2.65,-2.65c0,-1.461 -1.184,-2.645 -2.65,-2.645Z" style="fill:#02f6b6;fill-rule:nonzero;"/><path d="M115.791,57.134c-1.46,0 -2.649,1.184 -2.649,2.645c0,1.466 1.189,2.65 2.649,2.65c1.466,0 2.65,-1.184 2.65,-2.65c0,-1.461 -1.184,-2.645 -2.65,-2.645Z" style="fill:#02f6b6;fill-rule:nonzero;"/><path d="M101.752,57.134c-1.466,0 -2.65,1.184 -2.65,2.645c0,1.466 1.184,2.65 2.65,2.65c1.46,0 2.645,-1.184 2.645,-2.65c0,-1.461 -1.185,-2.645 -2.645,-2.645Z" style="fill:#02f6b6;fill-rule:nonzero;"/><path d="M87.702,57.134c-1.461,0 -2.645,1.184 -2.645,2.645c0,1.466 1.184,2.65 2.645,2.65c1.466,0 2.65,-1.184 2.65,-2.65c0,-1.461 -1.184,-2.645 -2.65,-2.645Z" style="fill:#02f6b6;fill-rule:nonzero;"/><path d="M73.662,57.134c-1.465,0 -2.649,1.184 -2.649,2.645c0,1.466 1.184,2.65 2.649,2.65c1.461,0 2.65,-1.184 2.65,-2.65c0,-1.461 -1.189,-2.645 -2.65,-2.645Z" style="fill:#02f6b6;fill-rule:nonzero;"/><path d="M59.618,57.134c-1.466,0 -2.65,1.184 -2.65,2.645c0,1.466 1.184,2.65 2.65,2.65c1.46,0 2.645,-1.184 2.645,-2.65c0,-1.461 -1.185,-2.645 -2.645,-2.645Z" style="fill:#02f6b6;fill-rule:nonzero;"/><path d="M45.573,57.134c-1.461,0 -2.645,1.184 -2.645,2.645c0,1.466 1.184,2.65 2.645,2.65c1.461,0 2.65,-1.184 2.65,-2.65c0,-1.461 -1.189,-2.645 -2.65,-2.645Z" style="fill:#02f6b6;fill-rule:nonzero;"/><path d="M31.528,57.134c-1.46,0 -2.649,1.184 -2.649,2.645c0,1.466 1.189,2.65 2.649,2.65c1.466,0 2.65,-1.184 2.65,-2.65c0,-1.461 -1.184,-2.645 -2.65,-2.645Z" style="fill:#02f6b6;fill-rule:nonzero;"/><path d="M17.489,57.134c-1.466,0 -2.65,1.184 -2.65,2.645c0,1.466 1.184,2.65 2.65,2.65c1.456,0 2.645,-1.184 2.645,-2.65c0,-1.461 -1.189,-2.645 -2.645,-2.645Z" style="fill:#02f6b6;fill-rule:nonzero;"/><path d="M3.444,57.134c-1.466,0 -2.65,1.184 -2.65,2.645c0,1.466 1.184,2.65 2.65,2.65c1.461,0 2.645,-1.184 2.645,-2.65c0,-1.461 -1.184,-2.645 -2.645,-2.645Z" style="fill:#02f6b6;fill-rule:nonzero;"/><path d="M228.144,43.089c-1.461,0 -2.645,1.185 -2.645,2.645c0,1.466 1.184,2.65 2.645,2.65c1.46,0 2.649,-1.184 2.649,-2.65c0,-1.46 -1.189,-2.645 -2.649,-2.645Z" style="fill:#02f6b6;fill-rule:nonzero;"/><path d="M214.099,43.089c-1.466,0 -2.65,1.185 -2.65,2.645c0,1.466 1.184,2.65 2.65,2.65c1.466,0 2.65,-1.184 2.65,-2.65c0,-1.46 -1.184,-2.645 -2.65,-2.645Z" style="fill:#02f6b6;fill-rule:nonzero;"/><path d="M200.059,43.089c-1.465,0 -2.649,1.185 -2.649,2.645c0,1.466 1.184,2.65 2.649,2.65c1.456,0 2.645,-1.184 2.645,-2.65c0,-1.46 -1.189,-2.645 -2.645,-2.645Z" style="fill:#02f6b6;fill-rule:nonzero;"/><path d="M186.01,43.089c-1.461,0 -2.645,1.185 -2.645,2.645c0,1.466 1.184,2.65 2.645,2.65c1.465,0 2.649,-1.184 2.649,-2.65c0,-1.46 -1.184,-2.645 -2.649,-2.645Z" style="fill:#02f6b6;fill-rule:nonzero;"/><path d="M171.97,43.089c-1.461,0 -2.65,1.185 -2.65,2.645c0,1.466 1.189,2.65 2.65,2.65c1.461,0 2.645,-1.184 2.645,-2.65c0,-1.46 -1.184,-2.645 -2.645,-2.645Z" style="fill:#02f6b6;fill-rule:nonzero;"/><path d="M157.925,43.089c-1.465,0 -2.649,1.185 -2.649,2.645c0,1.466 1.184,2.65 2.649,2.65c1.461,0 2.65,-1.184 2.65,-2.65c0,-1.46 -1.189,-2.645 -2.65,-2.645Z" style="fill:#02f6b6;fill-rule:nonzero;"/><path d="M143.881,43.089c-1.461,0 -2.645,1.185 -2.645,2.645c0,1.466 1.184,2.65 2.645,2.65c1.46,0 2.645,-1.184 2.645,-2.65c0,-1.46 -1.185,-2.645 -2.645,-2.645Z" style="fill:#02f6b6;fill-rule:nonzero;"/><path d="M129.836,43.089c-1.461,0 -2.65,1.185 -2.65,2.645c0,1.466 1.189,2.65 2.65,2.65c1.466,0 2.65,-1.184 2.65,-2.65c0,-1.46 -1.184,-2.645 -2.65,-2.645Z" style="fill:#02f6b6;fill-rule:nonzero;"/><path d="M115.791,43.089c-1.46,0 -2.649,1.185 -2.649,2.645c0,1.466 1.189,2.65 2.649,2.65c1.466,0 2.65,-1.184 2.65,-2.65c0,-1.46 -1.184,-2.645 -2.65,-2.645Z" style="fill:#02f6b6;fill-rule:nonzero;"/><path d="M101.752,43.089c-1.466,0 -2.65,1.185 -2.65,2.645c0,1.466 1.184,2.65 2.65,2.65c1.46,0 2.645,-1.184 2.645,-2.65c0,-1.46 -1.185,-2.645 -2.645,-2.645Z" style="fill:#02f6b6;fill-rule:nonzero;"/><path d="M87.702,43.089c-1.461,0 -2.645,1.185 -2.645,2.645c0,1.466 1.184,2.65 2.645,2.65c1.466,0 2.65,-1.184 2.65,-2.65c0,-1.46 -1.184,-2.645 -2.65,-2.645Z" style="fill:#02f6b6;fill-rule:nonzero;"/><path d="M73.662,43.089c-1.465,0 -2.649,1.185 -2.649,2.645c0,1.466 1.184,2.65 2.649,2.65c1.461,0 2.65,-1.184 2.65,-2.65c0,-1.46 -1.189,-2.645 -2.65,-2.645Z" style="fill:#02f6b6;fill-rule:nonzero;"/><path d="M59.618,43.089c-1.466,0 -2.65,1.185 -2.65,2.645c0,1.466 1.184,2.65 2.65,2.65c1.46,0 2.645,-1.184 2.645,-2.65c0,-1.46 -1.185,-2.645 -2.645,-2.645Z" style="fill:#02f6b6;fill-rule:nonzero;"/><path d="M45.573,43.089c-1.461,0 -2.645,1.185 -2.645,2.645c0,1.466 1.184,2.65 2.645,2.65c1.461,0 2.65,-1.184 2.65,-2.65c0,-1.46 -1.189,-2.645 -2.65,-2.645Z" style="fill:#02f6b6;fill-rule:nonzero;"/><path d="M31.528,43.089c-1.46,0 -2.649,1.185 -2.649,2.645c0,1.466 1.189,2.65 2.649,2.65c1.466,0 2.65,-1.184 2.65,-2.65c0,-1.46 -1.184,-2.645 -2.65,-2.645Z" style="fill:#02f6b6;fill-rule:nonzero;"/><path d="M17.489,43.089c-1.466,0 -2.65,1.185 -2.65,2.645c0,1.466 1.184,2.65 2.65,2.65c1.456,0 2.645,-1.184 2.645,-2.65c0,-1.46 -1.189,-2.645 -2.645,-2.645Z" style="fill:#02f6b6;fill-rule:nonzero;"/><path d="M3.444,43.089c-1.466,0 -2.65,1.185 -2.65,2.645c0,1.466 1.184,2.65 2.65,2.65c1.461,0 2.645,-1.184 2.645,-2.65c0,-1.46 -1.184,-2.645 -2.645,-2.645Z" style="fill:#02f6b6;fill-rule:nonzero;"/><path d="M242.188,29.045c-1.46,0 -2.649,1.184 -2.649,2.645c0,1.465 1.189,2.649 2.649,2.649c1.461,0 2.645,-1.184 2.645,-2.649c0,-1.461 -1.184,-2.645 -2.645,-2.645Z" style="fill:#02f6b6;fill-rule:nonzero;"/><path d="M228.144,29.045c-1.461,0 -2.645,1.184 -2.645,2.645c0,1.465 1.184,2.649 2.645,2.649c1.46,0 2.649,-1.184 2.649,-2.649c0,-1.461 -1.189,-2.645 -2.649,-2.645Z" style="fill:#02f6b6;fill-rule:nonzero;"/><path d="M214.099,29.045c-1.466,0 -2.65,1.184 -2.65,2.645c0,1.465 1.184,2.649 2.65,2.649c1.466,0 2.65,-1.184 2.65,-2.649c0,-1.461 -1.184,-2.645 -2.65,-2.645Z" style="fill:#02f6b6;fill-rule:nonzero;"/><path d="M200.059,29.045c-1.465,0 -2.649,1.184 -2.649,2.645c0,1.465 1.184,2.649 2.649,2.649c1.456,0 2.645,-1.184 2.645,-2.649c0,-1.461 -1.189,-2.645 -2.645,-2.645Z" style="fill:#02f6b6;fill-rule:nonzero;"/><path d="M186.01,29.045c-1.461,0 -2.645,1.184 -2.645,2.645c0,1.465 1.184,2.649 2.645,2.649c1.465,0 2.649,-1.184 2.649,-2.649c0,-1.461 -1.184,-2.645 -2.649,-2.645Z" style="fill:#02f6b6;fill-rule:nonzero;"/><path d="M171.97,29.045c-1.461,0 -2.65,1.184 -2.65,2.645c0,1.465 1.189,2.649 2.65,2.649c1.461,0 2.645,-1.184 2.645,-2.649c0,-1.461 -1.184,-2.645 -2.645,-2.645Z" style="fill:#02f6b6;fill-rule:nonzero;"/><path d="M157.925,29.045c-1.465,0 -2.649,1.184 -2.649,2.645c0,1.465 1.184,2.649 2.649,2.649c1.461,0 2.65,-1.184 2.65,-2.649c0,-1.461 -1.189,-2.645 -2.65,-2.645Z" style="fill:#02f6b6;fill-rule:nonzero;"/><path d="M143.881,29.045c-1.461,0 -2.645,1.184 -2.645,2.645c0,1.465 1.184,2.649 2.645,2.649c1.46,0 2.645,-1.184 2.645,-2.649c0,-1.461 -1.185,-2.645 -2.645,-2.645Z" style="fill:#02f6b6;fill-rule:nonzero;"/><path d="M129.836,29.045c-1.461,0 -2.65,1.184 -2.65,2.645c0,1.465 1.189,2.649 2.65,2.649c1.466,0 2.65,-1.184 2.65,-2.649c0,-1.461 -1.184,-2.645 -2.65,-2.645Z" style="fill:#02f6b6;fill-rule:nonzero;"/><path d="M115.791,29.045c-1.46,0 -2.649,1.184 -2.649,2.645c0,1.465 1.189,2.649 2.649,2.649c1.466,0 2.65,-1.184 2.65,-2.649c0,-1.461 -1.184,-2.645 -2.65,-2.645Z" style="fill:#02f6b6;fill-rule:nonzero;"/><path d="M101.752,29.045c-1.466,0 -2.65,1.184 -2.65,2.645c0,1.465 1.184,2.649 2.65,2.649c1.46,0 2.645,-1.184 2.645,-2.649c0,-1.461 -1.185,-2.645 -2.645,-2.645Z" style="fill:#02f6b6;fill-rule:nonzero;"/><path d="M87.702,29.045c-1.461,0 -2.645,1.184 -2.645,2.645c0,1.465 1.184,2.649 2.645,2.649c1.466,0 2.65,-1.184 2.65,-2.649c0,-1.461 -1.184,-2.645 -2.65,-2.645Z" style="fill:#02f6b6;fill-rule:nonzero;"/><path d="M73.662,29.045c-1.465,0 -2.649,1.184 -2.649,2.645c0,1.465 1.184,2.649 2.649,2.649c1.461,0 2.65,-1.184 2.65,-2.649c0,-1.461 -1.189,-2.645 -2.65,-2.645Z" style="fill:#02f6b6;fill-rule:nonzero;"/><path d="M59.618,29.045c-1.466,0 -2.65,1.184 -2.65,2.645c0,1.465 1.184,2.649 2.65,2.649c1.46,0 2.645,-1.184 2.645,-2.649c0,-1.461 -1.185,-2.645 -2.645,-2.645Z" style="fill:#02f6b6;fill-rule:nonzero;"/><path d="M45.573,29.045c-1.461,0 -2.645,1.184 -2.645,2.645c0,1.465 1.184,2.649 2.645,2.649c1.461,0 2.65,-1.184 2.65,-2.649c0,-1.461 -1.189,-2.645 -2.65,-2.645Z" style="fill:#02f6b6;fill-rule:nonzero;"/><path d="M31.528,29.045c-1.46,0 -2.649,1.184 -2.649,2.645c0,1.465 1.189,2.649 2.649,2.649c1.466,0 2.65,-1.184 2.65,-2.649c0,-1.461 -1.184,-2.645 -2.65,-2.645Z" style="fill:#02f6b6;fill-rule:nonzero;"/><path d="M17.489,29.045c-1.466,0 -2.65,1.184 -2.65,2.645c0,1.465 1.184,2.649 2.65,2.649c1.456,0 2.645,-1.184 2.645,-2.649c0,-1.461 -1.189,-2.645 -2.645,-2.645Z" style="fill:#02f6b6;fill-rule:nonzero;"/><path d="M3.444,29.045c-1.466,0 -2.65,1.184 -2.65,2.645c0,1.465 1.184,2.649 2.65,2.649c1.461,0 2.645,-1.184 2.645,-2.649c0,-1.461 -1.184,-2.645 -2.645,-2.645Z" style="fill:#02f6b6;fill-rule:nonzero;"/><path d="M256.233,15c-1.466,0 -2.65,1.184 -2.65,2.65c0,1.461 1.184,2.645 2.65,2.645c1.466,0 2.65,-1.184 2.65,-2.645c0,-1.466 -1.184,-2.65 -2.65,-2.65Z" style="fill:#02f6b6;fill-rule:nonzero;"/><path d="M242.188,15c-1.46,0 -2.649,1.184 -2.649,2.65c0,1.461 1.189,2.645 2.649,2.645c1.461,0 2.645,-1.184 2.645,-2.645c0,-1.466 -1.184,-2.65 -2.645,-2.65Z" style="fill:#02f6b6;fill-rule:nonzero;"/><path d="M228.144,15c-1.461,0 -2.645,1.184 -2.645,2.65c0,1.461 1.184,2.645 2.645,2.645c1.46,0 2.649,-1.184 2.649,-2.645c0,-1.466 -1.189,-2.65 -2.649,-2.65Z" style="fill:#02f6b6;fill-rule:nonzero;"/><path d="M214.099,15c-1.466,0 -2.65,1.184 -2.65,2.65c0,1.461 1.184,2.645 2.65,2.645c1.466,0 2.65,-1.184 2.65,-2.645c0,-1.466 -1.184,-2.65 -2.65,-2.65Z" style="fill:#02f6b6;fill-rule:nonzero;"/><path d="M200.059,15c-1.465,0 -2.649,1.184 -2.649,2.65c0,1.461 1.184,2.645 2.649,2.645c1.456,0 2.645,-1.184 2.645,-2.645c0,-1.466 -1.189,-2.65 -2.645,-2.65Z" style="fill:#02f6b6;fill-rule:nonzero;"/><path d="M186.01,15c-1.461,0 -2.645,1.184 -2.645,2.65c0,1.461 1.184,2.645 2.645,2.645c1.465,0 2.649,-1.184 2.649,-2.645c0,-1.466 -1.184,-2.65 -2.649,-2.65Z" style="fill:#02f6b6;fill-rule:nonzero;"/><path d="M171.97,15c-1.461,0 -2.65,1.184 -2.65,2.65c0,1.461 1.189,2.645 2.65,2.645c1.461,0 2.645,-1.184 2.645,-2.645c0,-1.466 -1.184,-2.65 -2.645,-2.65Z" style="fill:#02f6b6;fill-rule:nonzero;"/><path d="M157.925,15c-1.465,0 -2.649,1.184 -2.649,2.65c0,1.461 1.184,2.645 2.649,2.645c1.461,0 2.65,-1.184 2.65,-2.645c0,-1.466 -1.189,-2.65 -2.65,-2.65Z" style="fill:#02f6b6;fill-rule:nonzero;"/><path d="M143.881,15c-1.461,0 -2.645,1.184 -2.645,2.65c0,1.461 1.184,2.645 2.645,2.645c1.46,0 2.645,-1.184 2.645,-2.645c0,-1.466 -1.185,-2.65 -2.645,-2.65Z" style="fill:#02f6b6;fill-rule:nonzero;"/><path d="M129.836,15c-1.461,0 -2.65,1.184 -2.65,2.65c0,1.461 1.189,2.645 2.65,2.645c1.466,0 2.65,-1.184 2.65,-2.645c0,-1.466 -1.184,-2.65 -2.65,-2.65Z" style="fill:#02f6b6;fill-rule:nonzero;"/><path d="M115.791,15c-1.46,0 -2.649,1.184 -2.649,2.65c0,1.461 1.189,2.645 2.649,2.645c1.466,0 2.65,-1.184 2.65,-2.645c0,-1.466 -1.184,-2.65 -2.65,-2.65Z" style="fill:#02f6b6;fill-rule:nonzero;"/><path d="M101.752,15c-1.466,0 -2.65,1.184 -2.65,2.65c0,1.461 1.184,2.645 2.65,2.645c1.46,0 2.645,-1.184 2.645,-2.645c0,-1.466 -1.185,-2.65 -2.645,-2.65Z" style="fill:#02f6b6;fill-rule:nonzero;"/><path d="M87.702,15c-1.461,0 -2.645,1.184 -2.645,2.65c0,1.461 1.184,2.645 2.645,2.645c1.466,0 2.65,-1.184 2.65,-2.645c0,-1.466 -1.184,-2.65 -2.65,-2.65Z" style="fill:#02f6b6;fill-rule:nonzero;"/><path d="M73.662,15c-1.465,0 -2.649,1.184 -2.649,2.65c0,1.461 1.184,2.645 2.649,2.645c1.461,0 2.65,-1.184 2.65,-2.645c0,-1.466 -1.189,-2.65 -2.65,-2.65Z" style="fill:#02f6b6;fill-rule:nonzero;"/><path d="M59.618,15c-1.466,0 -2.65,1.184 -2.65,2.65c0,1.461 1.184,2.645 2.65,2.645c1.46,0 2.645,-1.184 2.645,-2.645c0,-1.466 -1.185,-2.65 -2.645,-2.65Z" style="fill:#02f6b6;fill-rule:nonzero;"/><path d="M45.573,15c-1.461,0 -2.645,1.184 -2.645,2.65c0,1.461 1.184,2.645 2.645,2.645c1.461,0 2.65,-1.184 2.65,-2.645c0,-1.466 -1.189,-2.65 -2.65,-2.65Z" style="fill:#02f6b6;fill-rule:nonzero;"/><path d="M31.528,15c-1.46,0 -2.649,1.184 -2.649,2.65c0,1.461 1.189,2.645 2.649,2.645c1.466,0 2.65,-1.184 2.65,-2.645c0,-1.466 -1.184,-2.65 -2.65,-2.65Z" style="fill:#02f6b6;fill-rule:nonzero;"/><path d="M17.489,15c-1.466,0 -2.65,1.184 -2.65,2.65c0,1.461 1.184,2.645 2.65,2.645c1.456,0 2.645,-1.184 2.645,-2.645c0,-1.466 -1.189,-2.65 -2.645,-2.65Z" style="fill:#02f6b6;fill-rule:nonzero;"/><path d="M3.444,15c-1.466,0 -2.65,1.184 -2.65,2.65c0,1.461 1.184,2.645 2.65,2.645c1.461,0 2.645,-1.184 2.645,-2.645c0,-1.466 -1.184,-2.65 -2.645,-2.65Z" style="fill:#02f6b6;fill-rule:nonzero;"/><path d="M270.273,0.955c-1.456,0 -2.65,1.185 -2.65,2.65c0,1.461 1.194,2.65 2.65,2.65c1.465,0 2.65,-1.189 2.65,-2.65c0,-1.465 -1.185,-2.65 -2.65,-2.65Z" style="fill:#02f6b6;fill-rule:nonzero;"/><path d="M256.233,0.955c-1.466,0 -2.65,1.185 -2.65,2.65c0,1.461 1.184,2.65 2.65,2.65c1.466,0 2.65,-1.189 2.65,-2.65c0,-1.465 -1.184,-2.65 -2.65,-2.65Z" style="fill:#02f6b6;fill-rule:nonzero;"/><path d="M242.188,0.955c-1.46,0 -2.649,1.185 -2.649,2.65c0,1.461 1.189,2.65 2.649,2.65c1.461,0 2.645,-1.189 2.645,-2.65c0,-1.465 -1.184,-2.65 -2.645,-2.65Z" style="fill:#02f6b6;fill-rule:nonzero;"/><path d="M228.144,0.955c-1.461,0 -2.645,1.185 -2.645,2.65c0,1.461 1.184,2.65 2.645,2.65c1.46,0 2.649,-1.189 2.649,-2.65c0,-1.465 -1.189,-2.65 -2.649,-2.65Z" style="fill:#02f6b6;fill-rule:nonzero;"/><path d="M214.099,0.955c-1.466,0 -2.65,1.185 -2.65,2.65c0,1.461 1.184,2.65 2.65,2.65c1.466,0 2.65,-1.189 2.65,-2.65c0,-1.465 -1.184,-2.65 -2.65,-2.65Z" style="fill:#02f6b6;fill-rule:nonzero;"/><path d="M200.059,0.955c-1.465,0 -2.649,1.185 -2.649,2.65c0,1.461 1.184,2.65 2.649,2.65c1.456,0 2.645,-1.189 2.645,-2.65c0,-1.465 -1.189,-2.65 -2.645,-2.65Z" style="fill:#02f6b6;fill-rule:nonzero;"/><path d="M186.01,0.955c-1.461,0 -2.645,1.185 -2.645,2.65c0,1.461 1.184,2.65 2.645,2.65c1.465,0 2.649,-1.189 2.649,-2.65c0,-1.465 -1.184,-2.65 -2.649,-2.65Z" style="fill:#02f6b6;fill-rule:nonzero;"/><path d="M171.97,0.955c-1.461,0 -2.65,1.185 -2.65,2.65c0,1.461 1.189,2.65 2.65,2.65c1.461,0 2.645,-1.189 2.645,-2.65c0,-1.465 -1.184,-2.65 -2.645,-2.65Z" style="fill:#02f6b6;fill-rule:nonzero;"/><path d="M157.925,0.955c-1.465,0 -2.649,1.185 -2.649,2.65c0,1.461 1.184,2.65 2.649,2.65c1.461,0 2.65,-1.189 2.65,-2.65c0,-1.465 -1.189,-2.65 -2.65,-2.65Z" style="fill:#02f6b6;fill-rule:nonzero;"/><path d="M143.881,0.955c-1.461,0 -2.645,1.185 -2.645,2.65c0,1.461 1.184,2.65 2.645,2.65c1.46,0 2.645,-1.189 2.645,-2.65c0,-1.465 -1.185,-2.65 -2.645,-2.65Z" style="fill:#02f6b6;fill-rule:nonzero;"/><path d="M129.836,0.955c-1.461,0 -2.65,1.185 -2.65,2.65c0,1.461 1.189,2.65 2.65,2.65c1.466,0 2.65,-1.189 2.65,-2.65c0,-1.465 -1.184,-2.65 -2.65,-2.65Z" style="fill:#02f6b6;fill-rule:nonzero;"/><path d="M115.791,0.955c-1.46,0 -2.649,1.185 -2.649,2.65c0,1.461 1.189,2.65 2.649,2.65c1.466,0 2.65,-1.189 2.65,-2.65c0,-1.465 -1.184,-2.65 -2.65,-2.65Z" style="fill:#02f6b6;fill-rule:nonzero;"/><path d="M101.752,0.955c-1.466,0 -2.65,1.185 -2.65,2.65c0,1.461 1.184,2.65 2.65,2.65c1.46,0 2.645,-1.189 2.645,-2.65c0,-1.465 -1.185,-2.65 -2.645,-2.65Z" style="fill:#02f6b6;fill-rule:nonzero;"/><path d="M87.702,0.955c-1.461,0 -2.645,1.185 -2.645,2.65c0,1.461 1.184,2.65 2.645,2.65c1.466,0 2.65,-1.189 2.65,-2.65c0,-1.465 -1.184,-2.65 -2.65,-2.65Z" style="fill:#02f6b6;fill-rule:nonzero;"/><path d="M73.662,0.955c-1.465,0 -2.649,1.185 -2.649,2.65c0,1.461 1.184,2.65 2.649,2.65c1.461,0 2.65,-1.189 2.65,-2.65c0,-1.465 -1.189,-2.65 -2.65,-2.65Z" style="fill:#02f6b6;fill-rule:nonzero;"/><path d="M59.618,0.955c-1.466,0 -2.65,1.185 -2.65,2.65c0,1.461 1.184,2.65 2.65,2.65c1.46,0 2.645,-1.189 2.645,-2.65c0,-1.465 -1.185,-2.65 -2.645,-2.65Z" style="fill:#02f6b6;fill-rule:nonzero;"/><path d="M45.573,0.955c-1.461,0 -2.645,1.185 -2.645,2.65c0,1.461 1.184,2.65 2.645,2.65c1.461,0 2.65,-1.189 2.65,-2.65c0,-1.465 -1.189,-2.65 -2.65,-2.65Z" style="fill:#02f6b6;fill-rule:nonzero;"/><path d="M31.528,0.955c-1.46,0 -2.649,1.185 -2.649,2.65c0,1.461 1.189,2.65 2.649,2.65c1.466,0 2.65,-1.189 2.65,-2.65c0,-1.465 -1.184,-2.65 -2.65,-2.65Z" style="fill:#02f6b6;fill-rule:nonzero;"/><path d="M17.489,0.955c-1.466,0 -2.65,1.185 -2.65,2.65c0,1.461 1.184,2.65 2.65,2.65c1.456,0 2.645,-1.189 2.645,-2.65c0,-1.465 -1.189,-2.65 -2.645,-2.65Z" style="fill:#02f6b6;fill-rule:nonzero;"/><path d="M3.444,0.955c-1.466,0 -2.65,1.185 -2.65,2.65c0,1.461 1.184,2.65 2.65,2.65c1.461,0 2.645,-1.189 2.645,-2.65c0,-1.465 -1.184,-2.65 -2.645,-2.65Z" style="fill:#02f6b6;fill-rule:nonzero;"/></g></svg>