<?xml version="1.0" encoding="UTF-8" standalone="no"?><!DOCTYPE svg PUBLIC "-//W3C//DTD SVG 1.1//EN" "http://www.w3.org/Graphics/SVG/1.1/DTD/svg11.dtd"><svg width="100%" height="100%" viewBox="0 0 274 274" version="1.1" xmlns="http://www.w3.org/2000/svg" xmlns:xlink="http://www.w3.org/1999/xlink" xml:space="preserve" xmlns:serif="http://www.serif.com/" style="fill-rule:evenodd;clip-rule:evenodd;stroke-linejoin:round;stroke-miterlimit:2;"><g><path d="M0.906,0.955l272.124,0l-272.124,272.129l0,-272.129Z" style="fill:#003a2c;fill-rule:nonzero;"/><path d="M27.108,90.967c0.453,-0.633 0.818,-1.319 1.17,-1.982c0.25,-0.462 0.492,-0.928 0.774,-1.372c1.024,-1.649 2.004,-3.363 2.945,-5.016c0.95,-1.667 1.93,-3.39 2.963,-5.043c0.194,-0.308 0.255,-0.321 0.761,-0.418c0.954,-0.171 1.917,-0.105 2.932,-0.039c0.585,0.039 1.17,0.066 1.755,0.07c1.033,-0.009 2.075,-0.009 3.103,-0.009c2.322,0.009 4.727,0.009 7.101,-0.123c1.411,-0.079 2.224,0.066 2.721,1.068c1.125,2.295 2.44,4.516 3.706,6.665c0.901,1.53 1.833,3.113 2.686,4.7l0.642,1.003c0.4,0.58 0.778,1.129 0.884,1.767c-0.422,1.112 -1.038,2.115 -1.693,3.179c-0.281,0.466 -0.571,0.932 -0.835,1.402l-1.785,3.126c-1.205,2.11 -2.405,4.212 -3.583,6.335c-0.484,0.875 -0.989,1.187 -2.044,1.148c-5.237,-0.102 -10.569,-0.058 -15.273,-0.023c-0.774,0.009 -1.042,-0.149 -1.311,-0.672c-0.721,-1.398 -1.512,-2.787 -2.189,-3.957l-0.677,-1.174c-1.609,-2.765 -3.209,-5.535 -4.862,-8.274c-0.532,-0.883 -0.502,-1.499 0.109,-2.361Zm4.291,12.469c0.669,1.156 1.451,2.523 2.159,3.899c0.642,1.24 1.688,1.376 2.493,1.385c4.691,-0.035 10.015,-0.079 15.238,0.018c1.508,0.008 2.497,-0.515 3.218,-1.821c1.174,-2.119 2.369,-4.216 3.57,-6.317l1.789,-3.13c0.259,-0.462 0.541,-0.915 0.813,-1.368c0.682,-1.103 1.385,-2.246 1.851,-3.526l0.035,-0.298l-0.004,-0.168c-0.136,-0.967 -0.655,-1.719 -1.112,-2.382l-0.563,-0.884c-0.866,-1.609 -1.807,-3.201 -2.713,-4.744c-1.257,-2.128 -2.554,-4.33 -3.662,-6.577c-0.782,-1.591 -2.216,-1.824 -3.288,-1.824l-0.682,0.026c-2.339,0.128 -4.722,0.128 -7.025,0.123c-1.042,0 -2.084,-0.004 -3.122,0.005c-0.545,0.013 -1.099,-0.031 -1.648,-0.071c-1.055,-0.07 -2.146,-0.14 -3.333,0.079c-0.523,0.097 -1.068,0.198 -1.569,0.998c-1.047,1.671 -2.031,3.408 -2.99,5.087c-0.936,1.644 -1.908,3.341 -2.919,4.972c-0.29,0.471 -0.554,0.959 -0.818,1.451c-0.347,0.655 -0.677,1.271 -1.081,1.838c-0.906,1.275 -0.954,2.484 -0.163,3.798c1.649,2.73 3.249,5.496 4.849,8.257l0.677,1.174Zm48.246,-91.388c0.594,0.998 1.196,1.996 1.772,3.007l0.721,1.279c0.651,1.148 1.297,2.295 1.965,3.429c0.717,1.214 1.535,1.464 2.616,1.464l0.049,0c5.108,-0.026 10.287,-0.026 15.396,0c1.182,-0.026 1.974,-0.237 2.655,-1.495c1.367,-2.505 2.849,-5.011 4.287,-7.429c0.54,-0.919 1.081,-1.829 1.622,-2.748l1.886,-3.196c0.585,-0.99 0.58,-2.027 -0.004,-2.999c-0.48,-0.791 -0.937,-1.6 -1.403,-2.405l-1.517,0c0.59,1.034 1.179,2.067 1.794,3.087c0.334,0.554 0.334,1.077 -0.004,1.653l-1.886,3.196c-0.537,0.914 -1.082,1.829 -1.623,2.739c-1.437,2.431 -2.932,4.946 -4.304,7.474c-0.382,0.703 -0.672,0.835 -1.494,0.809c-5.113,-0.027 -10.301,-0.027 -15.414,0c-0.761,0.004 -1.104,-0.115 -1.521,-0.818c-0.669,-1.13 -1.315,-2.269 -1.957,-3.412l-0.721,-1.275c-0.585,-1.019 -1.187,-2.026 -1.789,-3.037c-1.271,-2.115 -2.576,-4.305 -3.636,-6.573c0.44,-0.866 0.941,-1.719 1.433,-2.55c0.251,-0.426 0.506,-0.857 0.748,-1.288l0.004,-0.005l-1.521,0l-0.365,0.625c-0.536,0.914 -1.099,1.864 -1.583,2.844l-0.061,0.365l0.053,0.347c1.103,2.41 2.475,4.696 3.802,6.912Zm101.144,-0.009c0.593,1.002 1.196,2.005 1.776,3.016l0.717,1.27c0.646,1.152 1.301,2.3 1.969,3.438c0.726,1.231 1.561,1.477 2.665,1.464c5.104,-0.026 10.287,-0.026 15.396,0c1.16,-0.026 1.974,-0.237 2.655,-1.495c1.363,-2.505 2.849,-5.007 4.282,-7.429c0.545,-0.915 1.086,-1.829 1.627,-2.748l1.886,-3.196c0.58,-0.99 0.576,-2.027 -0.004,-2.999c-0.48,-0.791 -0.937,-1.6 -1.403,-2.405l-1.517,0c0.589,1.034 1.179,2.067 1.794,3.087c0.334,0.554 0.334,1.077 -0.004,1.648l-1.886,3.201c-0.541,0.914 -1.082,1.829 -1.623,2.743c-1.442,2.432 -2.932,4.942 -4.308,7.47c-0.383,0.703 -0.668,0.835 -1.491,0.809c-5.117,-0.027 -10.3,-0.027 -15.413,0c-0.77,-0.005 -1.104,-0.115 -1.521,-0.818c-0.669,-1.13 -1.315,-2.273 -1.961,-3.416l-0.717,-1.271c-0.585,-1.024 -1.191,-2.031 -1.798,-3.042c-1.266,-2.114 -2.576,-4.3 -3.627,-6.568c0.44,-0.866 0.941,-1.719 1.429,-2.55c0.255,-0.426 0.51,-0.857 0.752,-1.288l0,-0.005l-1.517,0l-0.365,0.625c-0.536,0.914 -1.099,1.864 -1.583,2.844l-0.061,0.365l0.052,0.347c1.1,2.405 2.471,4.691 3.799,6.903Zm-176.863,240.478c2.546,-4.792 5.012,-9.056 7.527,-13.039c0.602,-0.954 0.607,-2.023 0.009,-3.012c-0.875,-1.455 -1.724,-2.937 -2.568,-4.409c-0.796,-1.39 -1.587,-2.774 -2.409,-4.142c-0.422,-0.699 -0.818,-1.411 -1.218,-2.123c-0.519,-0.919 -1.037,-1.842 -1.6,-2.744c-0.752,-1.213 -1.526,-1.45 -2.651,-1.45l-0.11,0l0,1.319l0.114,0c0.765,0.013 1.09,0.114 1.535,0.826c0.549,0.884 1.059,1.789 1.565,2.691c0.409,0.725 0.817,1.446 1.239,2.158c0.818,1.359 1.601,2.739 2.392,4.115c0.853,1.486 1.701,2.972 2.585,4.436c0.339,0.567 0.343,1.099 0.005,1.631c-2.533,4.01 -5.012,8.301 -7.58,13.124c-0.396,0.751 -0.941,1.063 -1.855,1.112l0,1.31c1.424,-0.048 2.387,-0.611 3.02,-1.803Zm0.044,-58.388c2.053,-3.768 4.295,-7.518 6.467,-11.145l0.902,-1.495c0.729,-1.226 0.729,-2.369 -0.005,-3.6l-0.919,-1.539c-2.167,-3.61 -4.396,-7.347 -6.445,-11.101c-0.747,-1.372 -1.67,-1.974 -3.064,-2.049l0,1.315c0.888,0.057 1.398,0.426 1.912,1.367c2.058,3.772 4.3,7.522 6.467,11.145l0.924,1.539c0.488,0.817 0.488,1.428 0,2.251l-0.893,1.49c-2.18,3.64 -4.431,7.403 -6.498,11.193c-0.523,0.963 -1.037,1.328 -1.912,1.376l0,1.302c1.38,-0.049 2.308,-0.66 3.064,-2.049Zm37.809,-43.568l0.431,-0.84l0.22,-0.347c0.36,-0.594 1.561,-0.985 2.251,-0.748l1.31,1.794l-0.04,0.149c-0.285,0.924 -0.514,1.543 -1.094,1.719l-0.897,0.15c-0.822,0 -1.429,-0.453 -1.943,-1.407l-0.238,-0.321l0,-0.149Zm3.456,2.985c1.297,-0.392 1.688,-1.667 1.974,-2.594l0.044,-0.145c0.325,-1.069 -1.337,-3.139 -2.128,-3.421l-0.923,-0.145c-1.13,0 -2.37,0.581 -2.898,1.456l-0.193,0.298c-0.251,0.383 -0.536,0.814 -0.629,1.377l-0.009,0.145c-0.145,0.545 0.203,0.932 0.387,1.138c0.985,1.834 2.458,2.471 4.375,1.891Zm101.275,-60.081c-0.391,0.413 -0.87,0.694 -1.196,0.699l-0.395,0.004c-1.091,0 -1.262,-0.18 -1.961,-2.022c0.615,-1.346 1.029,-1.869 2.269,-1.653c0.857,0.145 1.881,0.936 1.912,1.736c0.013,0.325 -0.237,0.822 -0.629,1.236Zm-1.064,-4.269l-0.699,-0.062c-1.877,0 -2.558,1.517 -3.068,2.656l-0.058,0.342l0.04,0.304c0.945,2.501 1.411,3.068 3.68,3.042c0.694,-0.013 1.468,-0.418 2.123,-1.112c0.66,-0.695 1.02,-1.491 0.989,-2.19c-0.057,-1.481 -1.6,-2.739 -3.007,-2.98Zm-141.775,-69.464c1.363,-2.505 2.849,-5.007 4.282,-7.429c0.545,-0.915 1.086,-1.829 1.627,-2.748l1.886,-3.196c0.585,-0.99 0.58,-2.027 -0.004,-2.999c-0.475,-0.791 -0.937,-1.6 -1.398,-2.405l-1.522,0c0.594,1.034 1.179,2.067 1.794,3.087c0.334,0.554 0.334,1.077 -0.004,1.653l-1.886,3.196c-0.541,0.914 -1.082,1.829 -1.623,2.743c-1.442,2.432 -2.932,4.942 -4.304,7.47c-0.382,0.703 -0.69,0.809 -1.494,0.809l-0.119,0l0,1.314l0.11,0c1.156,-0.008 1.974,-0.237 2.655,-1.495Zm23.947,16.469c-0.51,-0.738 -0.998,-1.442 -1.085,-2.277c0.514,-1.086 1.138,-2.141 1.749,-3.161c0.26,-0.435 0.515,-0.87 0.77,-1.306l0.14,-0.25c1.763,-3.06 3.522,-6.12 5.232,-9.211c0.484,-0.875 0.985,-1.187 2.04,-1.143c2.414,0.044 4.845,0.057 7.223,0.057c2.796,0 5.518,-0.022 8.054,-0.039c0.761,0.039 1.042,0.149 1.315,0.672c0.725,1.412 1.512,2.792 2.185,3.957l0.677,1.165c1.6,2.774 3.209,5.544 4.867,8.283c0.523,0.871 0.492,1.508 -0.114,2.361c-0.449,0.633 -0.814,1.319 -1.17,1.983c-0.246,0.461 -0.497,0.927 -0.769,1.371c-0.976,1.561 -1.9,3.183 -2.788,4.753c-0.993,1.754 -2.026,3.57 -3.13,5.293l-0.097,0.167l-0.149,0.229l-0.761,0.053c-0.87,0.066 -1.688,0.127 -2.506,0.083c-3.688,-0.198 -7.328,-0.193 -10.828,0.009c-2.088,0.127 -3.653,0.035 -4.669,-2.189c-0.949,-2.076 -2.136,-4.058 -3.288,-5.975c-0.721,-1.209 -1.473,-2.458 -2.146,-3.706c-0.22,-0.409 -0.488,-0.796 -0.752,-1.179Zm4.986,11.405c1.358,2.967 3.675,3.086 5.948,2.958c3.447,-0.202 7.043,-0.206 10.684,-0.008c0.901,0.048 1.798,-0.022 2.668,-0.084l0.747,-0.057c0.695,-0.044 0.994,-0.532 1.192,-0.857l0.079,-0.141c1.121,-1.754 2.159,-3.583 3.165,-5.35c0.884,-1.557 1.799,-3.17 2.757,-4.709c0.29,-0.47 0.554,-0.958 0.813,-1.446c0.352,-0.655 0.686,-1.275 1.082,-1.842c0.91,-1.275 0.963,-2.484 0.171,-3.799c-1.653,-2.735 -3.257,-5.5 -4.853,-8.261l-0.677,-1.169c-0.669,-1.148 -1.442,-2.511 -2.159,-3.895c-0.637,-1.249 -1.671,-1.381 -2.488,-1.39c-4.696,0.035 -10.02,0.079 -15.243,-0.017l-0.114,-0.005c-1.464,0 -2.396,0.55 -3.099,1.825c-1.711,3.086 -3.465,6.137 -5.223,9.193l-0.141,0.25c-0.251,0.431 -0.506,0.858 -0.761,1.288c-0.65,1.091 -1.327,2.225 -1.877,3.416l-0.057,0.348l-0.004,0.132c0.109,1.209 0.756,2.141 1.323,2.963l0.673,1.055c0.69,1.275 1.446,2.537 2.18,3.759c1.13,1.886 2.3,3.838 3.214,5.843Zm128.102,47.815c-0.281,0.462 -0.571,0.928 -0.835,1.398l-1.785,3.126c-1.205,2.11 -2.405,4.212 -3.583,6.335c-0.484,0.875 -0.998,1.187 -2.044,1.148c-5.237,-0.102 -10.569,-0.058 -15.274,-0.023c-0.707,0.014 -1.041,-0.149 -1.31,-0.672c-0.716,-1.389 -1.472,-2.722 -2.189,-3.957l-0.677,-1.165c-1.605,-2.77 -3.209,-5.544 -4.863,-8.283c-0.532,-0.883 -0.501,-1.499 0.106,-2.361c0.457,-0.633 0.822,-1.319 1.178,-1.982c0.246,-0.466 0.493,-0.928 0.77,-1.372c1.024,-1.649 2.004,-3.363 2.945,-5.016c0.945,-1.667 1.93,-3.39 2.959,-5.043c0.193,-0.308 0.264,-0.321 0.765,-0.413c0.985,-0.185 1.97,-0.119 3.016,-0.044c0.607,0.039 1.209,0.07 1.816,0.07c1.068,-0.013 2.136,-0.009 3.2,-0.009c2.247,0 4.568,0.005 6.859,-0.123c1.415,-0.079 2.224,0.066 2.716,1.068c1.13,2.295 2.445,4.516 3.711,6.665c0.901,1.53 1.833,3.113 2.686,4.7l0.642,1.007c0.4,0.58 0.778,1.125 0.884,1.763c-0.422,1.112 -1.038,2.119 -1.693,3.183Zm1.891,-5.693l-0.563,-0.884c-0.866,-1.609 -1.807,-3.201 -2.713,-4.744c-1.257,-2.128 -2.554,-4.33 -3.662,-6.577c-0.787,-1.591 -2.216,-1.824 -3.288,-1.824l-0.686,0.026c-2.251,0.128 -4.559,0.123 -6.784,0.119c-1.073,0 -2.141,0 -3.214,0.009c-0.576,0 -1.147,-0.031 -1.719,-0.071c-1.077,-0.07 -2.193,-0.145 -3.402,0.079c-0.528,0.093 -1.073,0.194 -1.574,0.998c-1.047,1.671 -2.031,3.408 -2.99,5.087c-0.936,1.644 -1.904,3.341 -2.919,4.972c-0.295,0.471 -0.554,0.959 -0.813,1.447c-0.352,0.655 -0.682,1.275 -1.086,1.846c-0.906,1.271 -0.959,2.48 -0.163,3.794c1.649,2.735 3.249,5.5 4.854,8.261l0.672,1.165c0.708,1.222 1.455,2.537 2.155,3.904c0.641,1.24 1.666,1.385 2.497,1.385c4.691,-0.035 10.015,-0.079 15.238,0.018c1.494,0.008 2.497,-0.515 3.218,-1.821c1.169,-2.119 2.369,-4.216 3.57,-6.317l1.789,-3.13c0.259,-0.462 0.536,-0.915 0.813,-1.363c0.677,-1.104 1.385,-2.247 1.847,-3.535l0.039,-0.294l-0.004,-0.168c-0.136,-0.967 -0.659,-1.719 -1.112,-2.382Zm-116.602,119.054c0.009,0.325 -0.241,0.822 -0.633,1.235c-0.391,0.414 -0.866,0.691 -1.196,0.695l-0.391,0.009c-1.094,0 -1.266,-0.185 -1.965,-2.022c0.615,-1.346 1.033,-1.873 2.269,-1.658c0.857,0.15 1.886,0.941 1.916,1.741Zm-2.396,-3.099c-1.877,0 -2.558,1.521 -3.068,2.659l-0.053,0.339l0.035,0.308c0.945,2.497 1.394,3.073 3.675,3.042c0.695,-0.013 1.469,-0.418 2.128,-1.108c0.655,-0.699 1.02,-1.495 0.989,-2.194c-0.052,-1.486 -1.6,-2.739 -3.007,-2.98l-0.699,-0.066Zm58.182,-42.514l-0.22,0.005c-2.611,0.092 -5.385,0.141 -8.99,0.154c-1.583,-0.005 -3.28,-0.04 -5.487,-0.145c-1.446,-0.066 -2.414,0.452 -3.086,1.644c-1.697,2.994 -3.407,5.975 -5.126,8.96l-2.704,4.708l-0.26,0.594l-0.074,0.211l-0.044,0.316l0.004,0.167c0.136,0.968 0.655,1.719 1.112,2.383l0.563,0.884c0.884,1.644 1.842,3.271 2.766,4.845c0.721,1.218 1.437,2.462 2.141,3.719l0.971,-0.971c-0.655,-1.157 -1.319,-2.295 -1.978,-3.416c-0.919,-1.561 -1.869,-3.179 -2.744,-4.797l-0.637,-1.007c-0.4,-0.58 -0.778,-1.13 -0.884,-1.767l0.044,-0.123l0.159,-0.387l2.703,-4.704c1.715,-2.985 3.434,-5.971 5.135,-8.964c0.422,-0.752 0.95,-1.016 1.873,-0.981c2.229,0.106 3.944,0.15 5.557,0.145c3.623,-0.013 6.41,-0.061 9.03,-0.154c1.196,-0.039 1.763,0.299 2.357,1.394c0.484,0.884 0.998,1.759 1.503,2.642l0.963,-0.967c-0.435,-0.765 -0.892,-1.534 -1.31,-2.308c-0.8,-1.464 -1.776,-2.08 -3.337,-2.08Zm-77.697,10.161c-3.32,-5.795 -6.744,-11.783 -10.174,-17.639c-0.272,-0.461 -0.527,-0.936 -0.778,-1.407c-0.584,-1.081 -1.187,-2.202 -1.983,-3.213c-0.202,-0.251 -0.281,-0.519 0.005,-1.003c4.752,-8.146 9.738,-16.781 15.708,-27.174c0.361,-0.624 0.765,-0.84 1.609,-0.84l0.014,0c10.217,0.027 20.438,0 30.664,0.04l0.018,0c0.448,0 0.831,-0.075 1.183,-0.185l0.277,0.488c0.285,0.51 0.567,1.02 0.861,1.526l2.766,4.787c4.11,7.127 8.225,14.254 12.376,21.358c0.281,0.484 0.206,0.752 0.004,1.003c-0.8,1.011 -1.398,2.127 -1.983,3.209c-0.255,0.475 -0.505,0.945 -0.778,1.407c-3.412,5.825 -6.823,11.782 -10.121,17.541l-3.319,5.804l-33.083,0l-3.266,-5.702Zm0.285,-57.721c-4.396,-7.623 -8.792,-15.247 -13.215,-22.848c-0.264,-0.448 -0.198,-0.708 0.026,-1.081c3.104,-5.109 6.116,-10.38 9.03,-15.48c1.346,-2.357 2.691,-4.717 4.05,-7.065c0.765,-1.323 1.543,-2.642 2.303,-3.944l0.818,-1.393l33.035,0l2.233,3.886c1.174,2.036 2.348,4.084 3.513,6.129c3.165,5.53 6.436,11.25 9.782,16.798c0.879,1.46 0.606,2.256 -0.185,3.601c-4.335,7.395 -8.868,15.242 -14.688,25.433c-0.488,0.857 -0.954,1.134 -1.9,1.134l-0.017,0c-10.226,-0.039 -20.448,-0.013 -30.665,-0.039l-0.022,0l-1.051,0.149l-3.047,-5.28Zm-0.303,-58.854c-3.31,-5.786 -6.731,-11.77 -10.156,-17.621c-0.272,-0.462 -0.527,-0.932 -0.782,-1.407c-0.58,-1.077 -1.183,-2.194 -1.983,-3.205c-0.171,-0.22 -0.294,-0.492 0.009,-1.007c4.686,-8.036 9.681,-16.671 15.708,-27.17c0.361,-0.628 0.77,-0.839 1.614,-0.839l0.009,0c10.221,0.026 20.438,0 30.664,0.035l0.018,0c0.444,0 0.826,-0.075 1.183,-0.189l0.25,0.444c0.295,0.527 0.585,1.051 0.888,1.574l2.818,4.889c4.098,7.091 8.195,14.187 12.324,21.256c0.281,0.484 0.206,0.752 0.004,1.007c-0.8,1.007 -1.398,2.123 -1.978,3.201c-0.26,0.474 -0.51,0.949 -0.783,1.411c-3.412,5.834 -6.828,11.795 -10.129,17.559l-3.315,5.79l-33.079,0l-3.284,-5.728Zm53.926,-22.026c10.93,-0.189 22.013,-0.189 32.943,0l0.325,0.606c0.73,0.919 1.275,1.935 1.855,3.012c0.264,0.488 0.528,0.976 0.809,1.455c3.399,5.812 6.801,11.756 10.09,17.502l3.359,5.861l-0.748,1.275c-0.782,1.336 -1.574,2.686 -2.356,4.04c-1.359,2.352 -2.708,4.713 -4.058,7.074c-2.906,5.091 -5.909,10.353 -9.008,15.444l-0.255,0.55c-11.013,0.149 -22.176,0.149 -33.189,0l-0.008,0l-0.027,0.008c-0.097,-0.496 -0.294,-1.024 -0.65,-1.617c-3.342,-5.54 -6.608,-11.251 -9.769,-16.777c-1.174,-2.049 -2.339,-4.093 -3.517,-6.137l-2.229,-3.874l3.328,-5.807c3.297,-5.76 6.709,-11.717 10.12,-17.542c0.277,-0.479 0.541,-0.967 0.809,-1.455c0.572,-1.077 1.117,-2.093 1.851,-3.012l0.325,-0.606Zm34.305,-1.214c4.749,-8.129 9.734,-16.763 15.713,-27.17c0.361,-0.628 0.765,-0.839 1.614,-0.839l0.008,0c10.222,0.026 20.439,0 30.661,0.035l0.018,0c0.448,0 0.83,-0.075 1.187,-0.189l0.224,0.396c0.299,0.54 0.602,1.081 0.914,1.622l2.682,4.642c4.137,7.175 8.283,14.35 12.459,21.503c0.277,0.484 0.207,0.752 0.005,1.007c-0.8,1.011 -1.398,2.123 -1.979,3.201c-0.259,0.479 -0.51,0.949 -0.782,1.411c-3.412,5.834 -6.828,11.795 -10.125,17.559l-3.319,5.79l-33.079,0l-3.341,-5.83c-3.293,-5.75 -6.696,-11.698 -10.103,-17.519c-0.268,-0.462 -0.528,-0.932 -0.778,-1.411c-0.58,-1.078 -1.183,-2.19 -1.987,-3.201c-0.172,-0.22 -0.29,-0.492 0.008,-1.007Zm12.06,82.71l3.06,5.311l-0.55,0.707c-5.825,10.156 -10.964,19.041 -15.699,27.161l-0.229,0.563c-5.465,-0.097 -10.969,-0.145 -16.473,-0.145c-5.505,0 -11.009,0.048 -16.478,0.145l-0.224,-0.563c-4.146,-7.1 -8.261,-14.226 -12.372,-21.349l-2.765,-4.787c-0.29,-0.501 -0.572,-1.007 -0.853,-1.513l-0.29,-0.518l0.73,-0.937c5.816,-10.191 10.344,-18.034 14.679,-25.42c0.392,-0.664 0.712,-1.314 0.844,-2.022l0.005,0.004c11.013,0.15 22.18,0.15 33.201,0l0.225,0.563c4.418,7.584 8.801,15.19 13.189,22.8Zm-114.337,93.749c4.414,7.561 8.797,15.141 13.193,22.746l3.016,5.215c-0.633,0.839 -1.121,1.745 -1.596,2.624l-0.633,1.152c-1.389,2.405 -2.77,4.814 -4.154,7.228c-2.339,4.084 -4.757,8.265 -7.206,12.406l3.724,-3.723c1.565,-2.695 3.108,-5.386 4.625,-8.033c1.376,-2.409 2.761,-4.818 4.15,-7.218c0.228,-0.392 0.439,-0.792 0.655,-1.192c0.492,-0.919 0.971,-1.78 1.591,-2.563c2.124,-0.158 4.3,-0.11 6.402,-0.057c0.527,0.013 1.072,0.022 1.609,0.031l1.301,-1.302c-0.967,-0.004 -1.93,-0.022 -2.875,-0.044c-2.111,-0.052 -4.287,-0.096 -6.441,0.058l-3.029,-5.241c-4.397,-7.606 -8.784,-15.185 -13.198,-22.751c-0.264,-0.444 -0.198,-0.704 0.026,-1.082c3.109,-5.117 6.129,-10.397 9.048,-15.506c1.341,-2.348 2.677,-4.695 4.032,-7.034c0.738,-1.28 1.486,-2.55 2.224,-3.812l0.897,-1.53l33.021,0l0.915,1.565c0.734,1.249 1.473,2.511 2.207,3.777c1.345,2.334 2.682,4.673 4.023,7.016c1.639,2.871 3.319,5.795 5.016,8.719l0.963,-0.963c-1.64,-2.818 -3.258,-5.636 -4.841,-8.411c-1.336,-2.343 -2.677,-4.686 -4.022,-7.021c-0.735,-1.266 -1.478,-2.528 -2.212,-3.781l-0.901,-1.529l3.345,-5.835c3.298,-5.759 6.705,-11.712 10.112,-17.528c0.277,-0.479 0.541,-0.967 0.805,-1.455c0.576,-1.077 1.121,-2.093 1.855,-3.012l0.325,-0.606c10.93,-0.189 22.013,-0.189 32.943,0l0.329,0.606c0.726,0.919 1.275,1.939 1.856,3.016c0.263,0.484 0.523,0.972 0.804,1.451c0.453,0.778 0.906,1.565 1.359,2.348l0.962,-0.963c-0.395,-0.682 -0.791,-1.372 -1.191,-2.053c-0.268,-0.462 -0.523,-0.932 -0.778,-1.407c-0.58,-1.082 -1.183,-2.198 -1.983,-3.209c-0.198,-0.251 -0.277,-0.519 0.004,-1.003c4.744,-8.124 9.884,-17.014 15.713,-27.174c0.361,-0.629 0.778,-0.848 1.622,-0.84c7.422,0.018 14.847,0.022 22.268,0.031l1.315,-1.314c-7.861,-0.014 -15.722,-0.009 -23.578,-0.031l-1.082,0.136l-3.064,-5.311c-4.388,-7.606 -8.771,-15.216 -13.194,-22.804c-0.259,-0.448 -0.193,-0.708 0.031,-1.081c3.104,-5.109 6.116,-10.376 9.022,-15.471c1.349,-2.361 2.695,-4.722 4.057,-7.074c0.783,-1.35 1.57,-2.7 2.353,-4.027l0.769,-1.31l33.034,0l2.234,3.886c1.174,2.036 2.343,4.076 3.508,6.12c3.166,5.535 6.441,11.255 9.791,16.807c0.875,1.46 0.598,2.256 -0.189,3.601c-1.297,2.211 -2.634,4.502 -4.014,6.88l3.645,-3.64c0.505,-0.87 1.006,-1.728 1.503,-2.572c0.387,-0.664 0.717,-1.314 0.844,-2.018l0.005,0c0.738,0.009 1.481,0.005 2.22,0.013l1.306,-1.305c-1.17,-0.014 -2.348,-0.005 -3.509,-0.022l-0.008,0l-0.027,0.008c-0.097,-0.496 -0.294,-1.024 -0.651,-1.617c-3.341,-5.544 -6.612,-11.26 -9.773,-16.786c-1.169,-2.044 -2.339,-4.089 -3.512,-6.128l-2.229,-3.874l3.328,-5.807c3.297,-5.76 6.709,-11.717 10.12,-17.542c0.277,-0.479 0.541,-0.967 0.8,-1.455c0.581,-1.077 1.126,-2.093 1.856,-3.012l0.329,-0.606c10.93,-0.189 22.009,-0.189 32.943,0l0.329,0.606c0.726,0.919 1.271,1.935 1.851,3.012c0.26,0.488 0.523,0.976 0.805,1.455c2.352,4.014 4.691,8.076 7.003,12.112l0.963,-0.963c-2.26,-3.939 -4.537,-7.896 -6.832,-11.817c-0.273,-0.462 -0.528,-0.937 -0.783,-1.411c-0.58,-1.078 -1.178,-2.194 -1.978,-3.201c-0.202,-0.255 -0.277,-0.523 0.004,-1.007c4.691,-8.036 9.681,-16.671 15.713,-27.17c0.361,-0.628 0.765,-0.839 1.614,-0.839l0.008,0c10.222,0.026 20.439,0 30.661,0.035l0.017,0c0.449,0 0.831,-0.075 1.188,-0.189l0.246,0.444c0.299,0.527 0.589,1.051 0.888,1.574l1.042,1.798l0.963,-0.963l-0.867,-1.495c-0.294,-0.514 -0.589,-1.033 -0.879,-1.556l-0.259,-0.47l0.73,-0.937c0.545,-0.958 1.068,-1.873 1.595,-2.792l-1.516,0c-0.409,0.713 -0.805,1.407 -1.222,2.142c-0.493,0.857 -0.954,1.129 -1.904,1.129l-0.018,0c-10.221,-0.039 -20.439,-0.008 -30.665,-0.035l-0.008,0l-1.064,0.145l-1.948,-3.381l-1.521,0l2.33,4.032l-0.554,0.703c-6.023,10.499 -11.017,19.129 -15.704,27.166l-0.224,0.558c-5.465,-0.092 -10.969,-0.145 -16.473,-0.145c-5.505,0 -11.009,0.053 -16.474,0.145l-0.228,-0.558c-4.177,-7.153 -8.318,-14.328 -12.455,-21.499l-2.686,-4.647c-0.304,-0.532 -0.603,-1.068 -0.906,-1.604l-0.233,-0.422l0.73,-0.937c0.545,-0.954 1.068,-1.873 1.596,-2.792l-1.517,0c-0.409,0.713 -0.805,1.412 -1.222,2.142c-0.488,0.857 -0.954,1.129 -1.904,1.129l-0.018,0c-10.221,-0.039 -20.439,-0.008 -30.665,-0.035l-0.008,0l-1.06,0.145l-1.952,-3.381l-1.517,0l2.326,4.028l-0.554,0.707c-5.97,10.402 -10.96,19.037 -15.699,27.166l-0.229,0.558c-5.465,-0.092 -10.969,-0.145 -16.473,-0.145c-5.505,0 -11.009,0.053 -16.474,0.145l-0.228,-0.558c-4.129,-7.074 -8.222,-14.161 -12.315,-21.257l-2.822,-4.889c-0.299,-0.514 -0.589,-1.033 -0.884,-1.556l-0.259,-0.47l0.73,-0.937c0.545,-0.958 1.068,-1.873 1.596,-2.792l-1.517,0c-0.405,0.713 -0.8,1.407 -1.222,2.142c-0.488,0.857 -0.954,1.129 -1.904,1.129l-0.013,0c-10.226,-0.039 -20.448,-0.008 -30.669,-0.035l-0.009,0l-1.06,0.145l-1.952,-3.381l-1.512,0l2.321,4.028l-0.554,0.707c-6.023,10.499 -11.017,19.129 -15.704,27.166l-0.224,0.558c-2.95,-0.053 -5.926,-0.053 -8.885,-0.075l0,1.311c2.959,0.026 5.935,0.026 8.881,0.079l0.329,0.606c0.726,0.919 1.275,1.939 1.856,3.016c0.263,0.488 0.523,0.972 0.804,1.451c3.421,5.843 6.841,11.822 10.151,17.603l3.298,5.76l-0.792,1.358c-0.769,1.306 -1.543,2.629 -2.312,3.957c-1.359,2.347 -2.704,4.708 -4.054,7.069c-2.91,5.091 -5.913,10.354 -9.008,15.449l-0.259,0.55c-2.95,0.039 -5.931,0.044 -8.894,0.061l0,1.315c2.963,-0.022 5.935,-0.022 8.885,-0.062l0.224,0.563c4.432,7.601 8.824,15.216 13.216,22.839l3.038,5.272l-0.55,0.707c-5.961,10.389 -10.951,19.019 -15.704,27.161l-0.224,0.563c-2.95,-0.053 -5.926,-0.053 -8.885,-0.079l0,1.314c2.959,0.027 5.935,0.027 8.881,0.08l0.329,0.606c0.73,0.919 1.275,1.939 1.856,3.016c0.263,0.488 0.523,0.972 0.804,1.451c3.425,5.852 6.85,11.835 10.165,17.625l3.284,5.738l-0.875,1.494c-0.739,1.262 -1.491,2.537 -2.229,3.816c-1.35,2.344 -2.695,4.691 -4.036,7.043c-2.915,5.1 -5.922,10.371 -9.026,15.476l-0.259,0.554c-2.95,0.039 -5.931,0.039 -8.894,0.057l0,1.314c2.963,-0.017 5.935,-0.017 8.889,-0.057l0.225,0.559Zm17.598,-57.22c-0.51,-0.738 -0.998,-1.437 -1.085,-2.277c0.514,-1.086 1.143,-2.145 1.754,-3.174c0.259,-0.431 0.514,-0.857 0.765,-1.293l0.14,-0.25c1.763,-3.06 3.522,-6.12 5.232,-9.211c0.484,-0.879 1.002,-1.16 2.04,-1.147c2.383,0.044 4.757,0.061 7.188,0.061c2.607,0 5.276,-0.017 8.089,-0.044c0.708,-0.03 1.042,0.154 1.315,0.677c0.721,1.407 1.512,2.788 2.185,3.957l0.637,1.104c1.623,2.791 3.236,5.583 4.907,8.344c0.527,0.884 0.501,1.499 -0.114,2.361c-0.449,0.633 -0.814,1.319 -1.17,1.983c-0.246,0.461 -0.497,0.923 -0.769,1.367c-0.976,1.565 -1.9,3.187 -2.788,4.757c-0.993,1.754 -2.026,3.57 -3.13,5.293l-0.097,0.167l-0.149,0.229l-0.747,0.053c-0.875,0.065 -1.697,0.127 -2.52,0.083c-3.671,-0.198 -7.315,-0.198 -10.828,0.004c-2.088,0.128 -3.653,0.04 -4.669,-2.189c-0.949,-2.071 -2.136,-4.053 -3.288,-5.97c-0.726,-1.209 -1.473,-2.458 -2.146,-3.711c-0.22,-0.404 -0.488,-0.791 -0.752,-1.174Zm4.986,11.405c1.358,2.967 3.684,3.086 5.948,2.954c3.465,-0.198 7.056,-0.202 10.684,-0.009c0.901,0.053 1.806,-0.017 2.681,-0.083l0.73,-0.053c0.699,-0.044 0.998,-0.532 1.196,-0.862l0.079,-0.136c1.121,-1.75 2.159,-3.579 3.165,-5.35c0.884,-1.557 1.799,-3.17 2.761,-4.713c0.291,-0.466 0.554,-0.954 0.809,-1.447c0.352,-0.655 0.686,-1.27 1.086,-1.838c0.901,-1.274 0.959,-2.483 0.167,-3.798c-1.662,-2.757 -3.279,-5.544 -4.893,-8.327l-0.637,-1.103c-0.669,-1.152 -1.447,-2.519 -2.159,-3.9c-0.633,-1.24 -1.653,-1.363 -2.488,-1.389c-5.43,0.048 -10.327,0.075 -15.243,-0.018l-0.114,0c-1.464,0 -2.396,0.55 -3.099,1.825c-1.711,3.082 -3.465,6.142 -5.223,9.193l-0.141,0.25c-0.251,0.427 -0.501,0.853 -0.752,1.275c-0.655,1.099 -1.332,2.234 -1.886,3.425l-0.057,0.352l-0.004,0.132c0.109,1.209 0.756,2.141 1.323,2.963l0.673,1.05c0.69,1.275 1.446,2.542 2.176,3.759c1.134,1.891 2.304,3.838 3.218,5.848Zm206.182,-146.62l-0.11,-0.005c-1.468,0 -2.4,0.55 -3.108,1.825c-1.706,3.086 -3.491,6.19 -5.218,9.197l-0.141,0.246c-0.251,0.431 -0.506,0.858 -0.761,1.288c-0.655,1.091 -1.327,2.225 -1.881,3.416l-0.058,0.348l0,0.132c0.11,1.209 0.752,2.141 1.319,2.963l0.677,1.055c0.691,1.275 1.447,2.537 2.181,3.759l0.198,0.338l0.958,-0.958l-0.03,-0.053c-0.721,-1.213 -1.473,-2.462 -2.15,-3.71c-0.22,-0.409 -0.484,-0.796 -0.752,-1.179c-0.51,-0.738 -0.994,-1.442 -1.086,-2.277c0.519,-1.086 1.143,-2.141 1.754,-3.161c0.255,-0.435 0.515,-0.87 0.77,-1.306l0.14,-0.246c1.728,-3.011 3.522,-6.124 5.228,-9.215c0.488,-0.875 0.993,-1.187 2.044,-1.143c2.413,0.044 4.845,0.057 7.223,0.057c2.792,0 5.518,-0.022 8.054,-0.039c0.4,-0.005 0.677,0.053 0.888,0.189l0.933,-0.932c-0.576,-0.475 -1.253,-0.567 -1.829,-0.572c-4.7,0.035 -10.024,0.079 -15.243,-0.017Zm-32.524,31.161c-0.796,-1.464 -1.772,-2.079 -3.328,-2.079l-0.225,0.004c-2.633,0.093 -5.486,0.141 -8.99,0.15c-1.565,-0.009 -3.267,-0.04 -5.487,-0.141c-1.416,-0.07 -2.422,0.466 -3.086,1.64c-1.706,3.011 -3.429,6.01 -5.153,9.008l-2.677,4.66l-0.255,0.594l-0.084,0.211l-0.039,0.321l0.004,0.162c0.136,0.972 0.655,1.724 1.108,2.383l0.563,0.888c0.888,1.64 1.846,3.271 2.774,4.845c1.235,2.097 2.51,4.265 3.614,6.472c0.655,1.31 1.767,1.947 3.372,1.842c2.079,-0.097 4.115,-0.128 6.093,-0.141l1.328,-1.323c-2.392,0.009 -4.915,0.035 -7.478,0.149c-1.099,0.035 -1.719,-0.272 -2.141,-1.116c-1.126,-2.247 -2.414,-4.432 -3.658,-6.551c-0.919,-1.565 -1.873,-3.179 -2.744,-4.805l-0.637,-1.003c-0.4,-0.58 -0.778,-1.13 -0.888,-1.767l0.048,-0.123l0.158,-0.387l2.678,-4.656c1.723,-3.003 3.451,-6.001 5.161,-9.012c0.418,-0.752 0.959,-1.02 1.873,-0.981c2.247,0.106 3.97,0.141 5.557,0.145c3.517,-0.008 6.388,-0.061 9.035,-0.149c1.196,-0.053 1.754,0.294 2.356,1.389c2.062,3.79 4.313,7.549 6.489,11.185l0.704,1.169l0.954,-0.958l-0.532,-0.889c-2.168,-3.622 -4.414,-7.372 -6.467,-11.136Zm-151.751,145.359c-0.831,-1.579 -2.246,-1.803 -3.302,-1.803l-0.668,0.018c-3.249,0.18 -6.506,0.083 -9.711,0.136c-0.616,0.022 -1.24,-0.031 -1.856,-0.075c-1.13,-0.075 -2.299,-0.158 -3.57,0.079c-0.523,0.097 -1.068,0.194 -1.565,1.003c-2.171,3.556 -4.211,7.17 -5.917,10.23c-0.277,0.506 -0.594,0.989 -0.91,1.473c-0.682,1.059 -1.394,2.15 -1.772,3.451l-0.022,0.259l0.057,0.348c1.082,2.317 2.396,4.528 3.671,6.665c0.774,1.297 1.578,2.638 2.308,3.978c0.339,0.616 0.69,1.223 1.042,1.834c0.435,0.738 0.862,1.477 1.262,2.238c0.651,1.235 1.649,1.384 2.493,1.38c3.53,-0.026 8.01,-0.048 12.679,-0.018l1.306,-1.301c-5.149,-0.048 -10.134,-0.022 -13.998,0.004c-0.761,-0.013 -1.042,-0.153 -1.315,-0.681c-0.409,-0.774 -0.849,-1.526 -1.288,-2.286c-0.347,-0.598 -0.695,-1.192 -1.025,-1.798c-0.742,-1.363 -1.551,-2.717 -2.334,-4.023c-1.227,-2.053 -2.493,-4.181 -3.53,-6.379c0.338,-1.051 0.932,-1.978 1.569,-2.954c0.33,-0.51 0.66,-1.02 0.959,-1.552c1.697,-3.047 3.723,-6.643 5.886,-10.182c0.189,-0.308 0.255,-0.317 0.761,-0.414c1.033,-0.184 2.066,-0.118 3.161,-0.044c0.594,0.044 1.183,0.084 1.776,0.084l0.189,-0.005c3.214,-0.052 6.48,0.044 9.765,-0.136c1.371,-0.07 2.207,0.075 2.73,1.082c2.273,4.326 4.739,8.621 7.557,13.136c0.431,0.682 0.444,1.192 0.057,1.759c-0.593,0.861 -1.108,1.789 -1.604,2.681l-0.625,1.122l-1.521,2.624c-0.352,0.611 -0.69,1.222 -1.042,1.829l3.566,-3.565l0.136,-0.229l0.637,-1.143c0.484,-0.866 0.976,-1.763 1.539,-2.576c0.682,-0.998 0.673,-2.075 -0.026,-3.197c-2.801,-4.488 -5.254,-8.757 -7.505,-13.052Zm-10.432,-103.566c0.857,0.145 1.886,0.936 1.916,1.736c0.009,0.325 -0.241,0.822 -0.633,1.236c-0.391,0.413 -0.866,0.694 -1.196,0.699l-0.391,0.004c-1.094,0 -1.266,-0.18 -1.965,-2.022c0.615,-1.346 1.029,-1.869 2.269,-1.653Zm0.114,4.985c0.694,-0.013 1.468,-0.418 2.128,-1.112c0.65,-0.69 1.015,-1.491 0.984,-2.19c-0.052,-1.481 -1.6,-2.739 -3.007,-2.98l-0.699,-0.062c-1.877,0 -2.558,1.517 -3.068,2.656l-0.053,0.342l0.035,0.304c0.945,2.497 1.394,3.104 3.68,3.042Zm51.011,27.794l-0.409,0.07c-0.589,0 -1.406,-0.312 -1.675,-0.703l-0.189,-0.264l-0.554,-0.971l0.128,-0.238l0.483,-0.844c0.401,-0.62 1.605,-1.033 2.221,-0.76c0.782,0.347 1.257,1.217 1.257,1.855c0,0.62 -0.444,1.481 -1.262,1.855Zm0.537,-4.911l-0.994,-0.193c-1.077,0 -2.299,0.563 -2.866,1.442l-0.532,0.936l-0.22,0.405l-0.084,0.391l0.013,0.207c0.141,0.65 0.493,1.147 0.805,1.587l0.176,0.246c0.699,1.024 2.611,1.587 3.706,1.086c1.178,-0.536 2.036,-1.82 2.036,-3.051c0,-1.069 -0.699,-2.462 -2.04,-3.056Zm47.186,-84.358l0.431,-0.835l0.22,-0.347c0.36,-0.594 1.556,-0.99 2.246,-0.748l1.315,1.798l-0.044,0.141c-0.281,0.928 -0.51,1.548 -1.095,1.728l-0.897,0.145c-0.817,0 -1.424,-0.449 -1.938,-1.407l-0.238,-0.321l0,-0.154Zm3.451,2.994c1.302,-0.395 1.693,-1.67 1.979,-2.598l0.039,-0.141c0.334,-1.072 -1.332,-3.143 -2.123,-3.42l-0.919,-0.145c-1.134,0 -2.374,0.576 -2.902,1.451l-0.193,0.299c-0.251,0.382 -0.536,0.813 -0.633,1.376l-0.009,0.149c-0.141,0.541 0.207,0.928 0.391,1.13c0.985,1.833 2.458,2.48 4.37,1.899Zm-16.952,-6.23c0.264,-0.435 0.519,-0.87 0.774,-1.31l0.092,-0.167c1.75,-3.033 3.557,-6.177 5.276,-9.294c0.488,-0.875 1.002,-1.187 2.044,-1.143c2.414,0.044 4.845,0.057 7.223,0.057c2.796,0 5.518,-0.022 8.054,-0.039c0.726,-0.005 1.042,0.154 1.315,0.672c0.717,1.403 1.504,2.788 2.185,3.957l0.642,1.113c1.613,2.787 3.236,5.579 4.902,8.339c0.527,0.875 0.497,1.495 -0.114,2.357c-0.449,0.633 -0.818,1.323 -1.17,1.983c-0.251,0.461 -0.497,0.927 -0.769,1.371c-0.976,1.561 -1.9,3.188 -2.788,4.753c-0.998,1.754 -2.026,3.57 -3.13,5.293l-0.097,0.167l-0.153,0.229l-0.757,0.053c-0.87,0.066 -1.692,0.127 -2.506,0.083c-3.688,-0.198 -7.333,-0.198 -10.828,0.009c-2.088,0.127 -3.653,0.035 -4.669,-2.189c-0.95,-2.076 -2.141,-4.054 -3.288,-5.971c-0.721,-1.209 -1.473,-2.457 -2.15,-3.71c-0.216,-0.409 -0.484,-0.792 -0.748,-1.179c-0.514,-0.738 -0.998,-1.437 -1.09,-2.277c0.514,-1.081 1.143,-2.137 1.75,-3.157Zm-1.068,7.237c0.69,1.279 1.446,2.537 2.18,3.763c1.13,1.882 2.299,3.834 3.214,5.839c1.358,2.967 3.68,3.086 5.948,2.958c3.447,-0.202 7.039,-0.206 10.683,-0.008c0.902,0.048 1.799,-0.022 2.665,-0.084l0.751,-0.057c0.695,-0.044 0.99,-0.532 1.183,-0.857l0.088,-0.141c1.121,-1.754 2.159,-3.583 3.165,-5.35c0.884,-1.557 1.799,-3.17 2.761,-4.709c0.286,-0.47 0.55,-0.958 0.809,-1.446c0.348,-0.655 0.682,-1.275 1.086,-1.842c0.906,-1.275 0.959,-2.484 0.163,-3.799c-1.662,-2.752 -3.271,-5.535 -4.884,-8.318l-0.642,-1.112c-0.673,-1.157 -1.451,-2.524 -2.159,-3.895c-0.637,-1.249 -1.688,-1.381 -2.488,-1.39c-4.696,0.035 -10.02,0.079 -15.243,-0.017l-0.11,-0.005c-1.468,0 -2.4,0.55 -3.103,1.825c-1.724,3.108 -3.526,6.243 -5.272,9.276l-0.096,0.167c-0.247,0.431 -0.502,0.866 -0.761,1.293c-0.646,1.09 -1.323,2.22 -1.877,3.411l-0.053,0.348l0,0.132c0.105,1.209 0.752,2.141 1.314,2.963l0.678,1.055Zm69.023,25.829c-0.277,0.664 -0.426,0.919 -0.827,0.963l-0.479,0.066l-0.985,0.092c-0.65,0 -0.962,-0.229 -1.173,-0.976l-0.286,-0.576l-0.123,-0.229l0,-0.061c0.549,-1.486 1.284,-2.001 2.598,-1.816c0.488,0.07 1.671,1.372 1.671,1.741l-0.396,0.796Zm-1.095,-3.838l-0.646,-0.049c-2.4,0 -3.148,2.097 -3.412,2.827l-0.03,0.295l-0.005,0.039c-0.026,0.453 0.189,0.787 0.334,1.012l0.123,0.215c0.629,2.255 2.423,1.992 3.61,1.829l0.444,-0.062c1.2,-0.14 1.613,-1.112 1.886,-1.758l0.286,-0.585c0.176,-0.268 0.312,-0.739 -0.013,-1.46c-0.44,-0.958 -1.658,-2.176 -2.577,-2.303Zm-84.806,62.248l-1.886,3.201c-0.537,0.906 -1.073,1.816 -1.609,2.721c-1.447,2.436 -2.942,4.955 -4.318,7.492c-0.382,0.703 -0.677,0.831 -1.494,0.809c-5.113,-0.027 -10.301,-0.027 -15.414,0c-0.765,0.03 -1.104,-0.115 -1.521,-0.818c-0.66,-1.117 -1.302,-2.251 -1.935,-3.376l-0.743,-1.311c-0.585,-1.02 -1.187,-2.031 -1.789,-3.038c-1.271,-2.114 -2.576,-4.304 -3.636,-6.572c0.44,-0.871 0.941,-1.719 1.433,-2.55c0.251,-0.431 0.506,-0.857 0.748,-1.288c1.042,-1.829 2.097,-3.654 3.148,-5.478c0.932,-1.618 1.864,-3.231 2.787,-4.854c0.404,-0.708 0.747,-0.804 1.508,-0.817c2.554,0.013 5.13,0.022 7.707,0.022c2.572,0 5.148,-0.009 7.707,-0.022c0.743,-0.018 1.085,0.114 1.529,0.83c0.546,0.88 1.06,1.785 1.566,2.687c0.408,0.721 0.809,1.446 1.239,2.154c0.818,1.367 1.601,2.743 2.392,4.119c0.849,1.486 1.701,2.972 2.585,4.441c0.334,0.554 0.334,1.077 -0.004,1.648Zm-3.847,-10.881c-0.422,-0.703 -0.822,-1.415 -1.218,-2.123c-0.523,-0.923 -1.042,-1.842 -1.6,-2.739c-0.756,-1.218 -1.57,-1.411 -2.651,-1.451c-5.109,0.026 -10.292,0.026 -15.396,0l-0.049,0c-1.09,0 -1.908,0.255 -2.611,1.482c-0.923,1.617 -1.851,3.231 -2.779,4.849c-1.059,1.824 -2.11,3.653 -3.152,5.482c-0.242,0.427 -0.497,0.849 -0.743,1.271c-0.536,0.919 -1.099,1.864 -1.583,2.849l-0.061,0.36l0.053,0.347c1.103,2.41 2.475,4.696 3.802,6.912c0.594,0.998 1.196,2 1.772,3.011l0.739,1.301c0.642,1.139 1.284,2.278 1.947,3.399c0.717,1.218 1.539,1.468 2.625,1.468l0.04,0c5.108,-0.026 10.287,-0.026 15.396,0c1.125,0.04 1.974,-0.242 2.655,-1.495c1.367,-2.514 2.858,-5.02 4.295,-7.451c0.541,-0.906 1.078,-1.816 1.614,-2.726l1.886,-3.196c0.585,-0.99 0.58,-2.027 -0.004,-2.999c-0.88,-1.459 -1.728,-2.937 -2.568,-4.409c-0.796,-1.385 -1.591,-2.77 -2.409,-4.142Zm29.895,22.725c-1.468,0 -2.4,0.55 -3.103,1.825c-1.57,2.835 -3.183,5.64 -4.797,8.45l3.495,-3.496c0.814,-1.442 1.649,-2.87 2.445,-4.317c0.488,-0.879 0.998,-1.16 2.044,-1.147l0.963,0.009l1.292,-1.293c-0.743,-0.009 -1.486,-0.013 -2.229,-0.031l-0.11,0Zm-43.032,42.417c-2.404,0 -3.152,2.097 -3.416,2.822l-0.035,0.295l0,0.035c-0.022,0.457 0.194,0.791 0.339,1.011l0.119,0.22c0.131,0.462 0.316,0.796 0.527,1.068l0.936,-0.936l-0.197,-0.488l-0.282,-0.576l-0.132,-0.233l0,-0.062c0.554,-1.486 1.302,-1.987 2.603,-1.811l0.708,0.47l0.936,-0.936c-0.47,-0.435 -1.002,-0.774 -1.464,-0.835l-0.642,-0.044Zm99.152,-171.886l0.488,-0.849c0.392,-0.611 1.614,-1.029 2.221,-0.76c0.782,0.351 1.257,1.217 1.257,1.855c0,0.62 -0.444,1.481 -1.262,1.855l-0.409,0.075c-0.589,0 -1.407,-0.317 -1.675,-0.708l-0.189,-0.268l-0.554,-0.967l0.123,-0.233Zm-0.637,1.965l0.176,0.246c0.703,1.029 2.611,1.587 3.706,1.086c1.178,-0.532 2.036,-1.82 2.036,-3.051c0,-1.068 -0.704,-2.458 -2.036,-3.056l-0.998,-0.193c-1.077,0 -2.299,0.567 -2.866,1.442l-0.537,0.945l-0.215,0.396l-0.079,0.391l0.008,0.207c0.132,0.65 0.493,1.147 0.805,1.587Zm-189.34,129.702c1.367,-2.514 2.858,-5.02 4.295,-7.447c0.537,-0.906 1.078,-1.816 1.614,-2.73l1.886,-3.196c0.585,-0.99 0.58,-2.027 -0.004,-2.999c-0.875,-1.459 -1.724,-2.937 -2.568,-4.409c-0.796,-1.385 -1.587,-2.77 -2.409,-4.142c-0.422,-0.703 -0.818,-1.415 -1.218,-2.123c-0.519,-0.923 -1.042,-1.842 -1.6,-2.739c-0.752,-1.218 -1.609,-1.486 -2.651,-1.451l-0.11,0l0,1.315l0.119,0c0.738,0.026 1.085,0.114 1.53,0.83c0.549,0.88 1.055,1.785 1.565,2.687c0.409,0.721 0.813,1.446 1.239,2.154c0.814,1.367 1.601,2.743 2.392,4.119c0.853,1.486 1.701,2.972 2.585,4.436c0.334,0.559 0.334,1.082 -0.004,1.653l-1.886,3.201c-0.537,0.91 -1.073,1.816 -1.614,2.726c-1.442,2.435 -2.937,4.954 -4.313,7.487c-0.382,0.703 -0.699,0.831 -1.494,0.809l-0.119,0l0,1.314l0.11,0c1.073,0.022 1.974,-0.242 2.655,-1.495Zm0.299,-58.705c2.053,-3.763 4.291,-7.504 6.458,-11.127l0.911,-1.512c0.729,-1.231 0.729,-2.374 -0.005,-3.601l-0.923,-1.543c-2.163,-3.614 -4.397,-7.346 -6.441,-11.097c-0.747,-1.376 -1.67,-1.978 -3.064,-2.053l0,1.319c0.884,0.062 1.398,0.422 1.912,1.363c2.053,3.772 4.3,7.518 6.467,11.141l0.924,1.543c0.488,0.822 0.488,1.429 0,2.251l-0.906,1.516c-2.176,3.632 -4.423,7.386 -6.485,11.172c-0.523,0.958 -1.037,1.323 -1.912,1.376l0,1.297c1.38,-0.049 2.308,-0.66 3.064,-2.045Zm37.809,-43.577l0.431,-0.835l0.22,-0.347c0.36,-0.594 1.561,-0.99 2.251,-0.748l1.31,1.798l-0.04,0.145c-0.285,0.924 -0.514,1.544 -1.094,1.724l-0.897,0.145c-0.822,0 -1.429,-0.449 -1.943,-1.407l-0.238,-0.321l0,-0.154Zm3.456,2.994c1.297,-0.395 1.688,-1.666 1.974,-2.598l0.044,-0.141c0.325,-1.072 -1.337,-3.143 -2.128,-3.42l-0.919,-0.145c-1.134,0 -2.374,0.576 -2.902,1.451l-0.193,0.299c-0.251,0.382 -0.536,0.813 -0.629,1.376l-0.009,0.149c-0.145,0.541 0.203,0.928 0.387,1.13c0.985,1.833 2.458,2.48 4.375,1.899Zm31.913,25.979l0.159,-0.379l2.637,-4.589c1.741,-3.025 3.478,-6.05 5.201,-9.083c0.422,-0.752 0.954,-1.02 1.873,-0.981c2.242,0.106 3.961,0.141 5.557,0.145c3.522,-0.008 6.388,-0.061 9.035,-0.149c1.191,-0.053 1.758,0.294 2.352,1.389c2.066,3.79 4.317,7.549 6.493,11.185l0.902,1.499c0.488,0.822 0.488,1.429 0,2.251l-0.902,1.499c-2.176,3.636 -4.422,7.399 -6.493,11.189c-0.558,1.028 -1.09,1.393 -2.097,1.393l-0.246,-0.008c-2.01,-0.102 -4.085,-0.146 -6.142,-0.15c-2.625,0.009 -5.452,0.031 -8.305,0.158c-1.099,0.035 -1.723,-0.272 -2.145,-1.116c-1.126,-2.247 -2.414,-4.436 -3.658,-6.551c-0.919,-1.565 -1.869,-3.183 -2.744,-4.805l-0.637,-1.003c-0.4,-0.58 -0.778,-1.125 -0.884,-1.767l0.044,-0.127Zm-1.354,0.254c0.136,0.972 0.655,1.724 1.112,2.388l0.563,0.883c0.884,1.64 1.842,3.267 2.766,4.845c1.239,2.097 2.514,4.265 3.618,6.472c0.655,1.31 1.767,1.939 3.372,1.842c2.835,-0.128 5.645,-0.15 8.256,-0.158c2.036,-0.005 4.085,0.044 6.067,0.149c1.68,0.106 2.717,-0.51 3.57,-2.071c2.049,-3.767 4.295,-7.517 6.467,-11.145l0.897,-1.494c0.73,-1.231 0.73,-2.374 0,-3.601l-0.901,-1.504c-2.168,-3.622 -4.414,-7.372 -6.463,-11.136c-0.8,-1.464 -1.776,-2.079 -3.332,-2.079l-0.225,0.004c-2.633,0.093 -5.486,0.141 -8.99,0.15c-1.578,0 -3.267,-0.04 -5.487,-0.141c-1.398,-0.066 -2.422,0.466 -3.086,1.64c-1.719,3.033 -3.456,6.054 -5.197,9.079l-2.633,4.589l-0.255,0.594l-0.079,0.211l-0.044,0.321l0.004,0.162Zm16.561,-0.118c0.554,-1.486 1.302,-1.992 2.603,-1.816c0.488,0.07 1.671,1.372 1.671,1.741l-0.396,0.796c-0.277,0.664 -0.426,0.919 -0.831,0.963l-0.475,0.066l-0.98,0.092c-0.655,0 -0.967,-0.229 -1.178,-0.976l-0.282,-0.576l-0.132,-0.229l0,-0.061Zm-0.852,1.222c0.633,2.255 2.426,1.992 3.609,1.829l0.444,-0.062c1.2,-0.14 1.613,-1.112 1.89,-1.758l0.282,-0.585c0.176,-0.268 0.312,-0.739 -0.013,-1.46c-0.44,-0.958 -1.658,-2.176 -2.577,-2.303l-0.642,-0.049c-2.404,0 -3.152,2.097 -3.416,2.827l-0.035,0.295l0,0.039c-0.022,0.453 0.194,0.787 0.339,1.012l0.119,0.215Zm-85.088,203.232l1.327,-1.323c-2.273,0.031 -4.559,0.035 -6.836,0.048l0,1.315c1.838,-0.013 3.675,-0.018 5.509,-0.04Zm86.09,-262.953l0.483,-0.844c0.401,-0.624 1.605,-1.033 2.221,-0.76c0.782,0.351 1.257,1.217 1.257,1.855c0,0.62 -0.444,1.481 -1.262,1.855l-0.409,0.075c-0.589,0 -1.406,-0.317 -1.675,-0.708l-0.189,-0.268l-0.554,-0.967l0.128,-0.238Zm-0.642,1.97l0.171,0.246c0.704,1.029 2.616,1.587 3.711,1.086c1.178,-0.532 2.036,-1.82 2.036,-3.051c0,-1.068 -0.699,-2.458 -2.04,-3.056l-0.994,-0.193c-1.077,0 -2.299,0.567 -2.866,1.438l-0.532,0.94l-0.22,0.405l-0.084,0.391l0.013,0.207c0.141,0.65 0.493,1.147 0.805,1.587Z" style="fill:#02f6b6;fill-rule:nonzero;"/></g></svg>